<svg width="37" height="37" viewBox="0 0 37 37" fill="none" xmlns="http://www.w3.org/2000/svg">
<path d="M15.5129 2.78014C15.8676 2.38008 16.3019 2.06005 16.7874 1.84095C17.2728 1.62185 17.7986 1.50861 18.3304 1.50861C18.8621 1.50861 19.3879 1.62185 19.8734 1.84095C20.3588 2.06005 20.7931 2.38008 21.1478 2.78014L22.4714 4.27344C22.8497 4.70023 23.3182 5.03561 23.8423 5.25477C24.3663 5.47392 24.9324 5.57124 25.4988 5.5395L27.4842 5.42874C28.0153 5.39918 28.5465 5.48307 29.0433 5.67493C29.54 5.86679 29.9911 6.16232 30.3671 6.5422C30.7431 6.92209 31.0355 7.37779 31.2253 7.87956C31.415 8.38132 31.4979 8.91787 31.4683 9.45415L31.3587 11.4573C31.3275 12.0289 31.424 12.6003 31.641 13.1291C31.858 13.658 32.19 14.1308 32.6123 14.5126L34.091 15.8494C34.4875 16.2076 34.8046 16.6462 35.0218 17.1367C35.2389 17.6272 35.3512 18.1584 35.3512 18.6956C35.3512 19.2328 35.2389 19.764 35.0218 20.2545C34.8046 20.7449 34.4875 21.1836 34.091 21.5418L32.6123 22.8785C32.1897 23.2606 31.8576 23.7337 31.6406 24.2629C31.4236 24.7921 31.3272 25.3639 31.3587 25.9358L31.4683 27.9409C31.4976 28.4772 31.4145 29.0137 31.2246 29.5153C31.0346 30.017 30.7419 30.4726 30.3658 30.8523C29.9896 31.232 29.5384 31.5273 29.0415 31.7189C28.5446 31.9105 28.0133 31.9942 27.4823 31.9644L25.4988 31.8536C24.9328 31.8222 24.367 31.9196 23.8433 32.1388C23.3196 32.3579 22.8514 32.6931 22.4733 33.1197L21.1497 34.613C20.795 35.0133 20.3606 35.3336 19.8749 35.5529C19.3893 35.7722 18.8633 35.8856 18.3313 35.8856C17.7993 35.8856 17.2733 35.7722 16.7877 35.5529C16.302 35.3336 15.8676 35.0133 15.5129 34.613L14.1893 33.1197C13.811 32.6929 13.3425 32.3575 12.8185 32.1383C12.2944 31.9192 11.7283 31.8219 11.162 31.8536L9.17652 31.9644C8.64547 31.9939 8.11422 31.91 7.61745 31.7182C7.12069 31.5263 6.66958 31.2308 6.29359 30.8509C5.9176 30.471 5.62519 30.0153 5.43544 29.5135C5.24569 29.0118 5.16287 28.4752 5.1924 27.9389L5.30207 25.9358C5.33321 25.3642 5.23671 24.7928 5.01971 24.264C4.80271 23.7351 4.47076 23.2623 4.0484 22.8805L2.56972 21.5437C2.17326 21.1855 1.8561 20.7468 1.63895 20.2564C1.42181 19.7659 1.30957 19.2347 1.30957 18.6975C1.30957 18.1603 1.42181 17.6291 1.63895 17.1386C1.8561 16.6482 2.17326 16.2095 2.56972 15.8513L4.0484 14.5146C4.47101 14.1325 4.80312 13.6594 5.02013 13.1302C5.23714 12.601 5.3335 12.0292 5.30207 11.4573L5.1924 9.45224C5.1634 8.9161 5.24667 8.37981 5.43678 7.87836C5.62689 7.37692 5.91956 6.92159 6.2957 6.5421C6.67184 6.1626 7.12299 5.86747 7.61971 5.67596C8.11642 5.48444 8.64754 5.40086 9.17841 5.43065L11.162 5.54141C11.728 5.57285 12.2937 5.4754 12.8174 5.25626C13.3411 5.03711 13.8093 4.70188 14.1874 4.27535L15.5129 2.78014Z" stroke="#1953A2" stroke-width="2"/>
<path d="M13.6035 13.9226H13.6224V13.9417H13.6035V13.9226ZM23.058 23.4705H23.0769V23.4896H23.058V23.4705Z" stroke="#2392D1" stroke-width="7" stroke-linejoin="round"/>
<path d="M24.0028 12.9678L12.6574 24.4254" stroke="#2392D1" stroke-width="4" stroke-linecap="round" stroke-linejoin="round"/>
</svg>
