<svg width="42" height="27" viewBox="0 0 42 27" fill="none" xmlns="http://www.w3.org/2000/svg">
<g clip-path="url(#clip0_15_467)">
<path d="M18.5299 4.17142H14.9154C14.2623 4.1735 14.2867 5.14694 14.9154 5.14122H18.5299V5.63885H14.9154C14.2659 5.63314 14.2898 6.60605 14.9154 6.60865H18.5299V7.11722H14.9154C14.2659 7.11722 14.2898 8.08962 14.9154 8.08702H18.5299V8.57166H14.9154C14.2794 8.57634 14.2898 9.54978 14.9154 9.5529H18.5299V10.0386H14.9154C14.2794 10.0365 14.2768 11.0084 14.9154 11.0084H18.5299V11.493H14.9154C14.2794 11.4951 14.2768 12.468 14.9154 12.4633H18.5299V12.9599H14.9154C14.2794 12.9542 14.2768 13.9261 14.9154 13.9297H18.5299V14.4133H14.9154C14.2794 14.4128 14.2898 15.3868 14.9154 15.3837H18.5299V24.8263C18.532 26.2652 20.7176 26.2392 20.7238 24.8263V2.72894C20.7176 2.07166 20.1778 1.2407 19.2896 1.2381H14.9154C14.2623 1.23862 14.2867 2.21206 14.9154 2.2079L18.5299 2.21986V2.70346H14.9154C14.2633 2.70034 14.2878 3.67325 14.9154 3.67377H18.5299V4.17142ZM14.6668 20.9123C14.6648 19.2327 12.9238 17.4262 10.8438 18.5962V12.1721L9.49856 1.57714C9.47048 1.29686 9.23284 1.23082 9.0732 1.22614C8.90836 1.23082 8.57816 1.29686 8.54228 1.57714L7.2038 12.1721V18.5962C5.1238 17.4262 3.439 19.2441 3.43848 20.8993C3.439 22.3719 4.5726 23.5815 6.1066 23.5778C7.65204 23.5815 8.7638 22.2258 8.7638 20.8993V14.2261H9.2838V20.8993C9.2838 22.3844 10.434 23.4837 11.7122 23.5534C11.6909 24.3677 11.9566 25.5294 12.4568 25.9901C13.0434 26.5309 13.7418 25.8393 13.4552 25.2761C13.1786 24.752 12.9072 24.4415 13.1276 23.297C14.0491 22.8706 14.6648 21.9731 14.6668 20.9123ZM6.16588 22.2336C5.81523 22.2336 5.47895 22.0943 5.23101 21.8464C4.98307 21.5984 4.84378 21.2622 4.84378 20.9115C4.84378 20.5609 4.98307 20.2246 5.23101 19.9766C5.47895 19.7287 5.81523 19.5894 6.16588 19.5894C6.8866 19.5936 7.47368 20.1848 7.47888 20.9123C7.47766 21.2609 7.3392 21.595 7.09346 21.8423C6.84773 22.0896 6.51449 22.2302 6.16588 22.2336ZM10.6228 20.9123C10.624 20.5634 10.7625 20.2291 11.0083 19.9815C11.2541 19.734 11.5875 19.5931 11.9363 19.5894C12.2852 19.5928 12.6187 19.7336 12.8645 19.9812C13.1102 20.2289 13.2485 20.5634 13.2493 20.9123C13.2488 21.2611 13.1105 21.5956 12.8647 21.8431C12.6188 22.0905 12.2851 22.2309 11.9363 22.2336C11.5876 22.2303 11.2542 22.0898 11.0084 21.8425C10.7625 21.5952 10.624 21.261 10.6228 20.9123Z" fill="#1953A2"/>
</g>
<path d="M34.3978 3.47614H32.0645L30.8978 1.22614H35.5645L34.3978 3.47614ZM41.3978 13.6011V23.7261H25.0645V13.6011C25.0645 10.4961 27.6778 7.97614 30.8978 7.97614V5.72614H29.7311V4.60114H36.7311V5.72614H35.5645V7.97614C38.7845 7.97614 41.3978 10.4961 41.3978 13.6011ZM39.0645 13.6011C39.0645 11.7449 37.4895 10.2261 35.5645 10.2261H30.8978C28.9728 10.2261 27.3978 11.7449 27.3978 13.6011V21.4761H39.0645V13.6011ZM36.7311 16.9761H34.3978V19.2261H32.0645V16.9761H29.7311V14.7261H32.0645V12.4761H34.3978V14.7261H36.7311V16.9761Z" fill="#2392D1"/>
<defs>
<clipPath id="clip0_15_467">
<rect width="26" height="26" fill="white" transform="translate(0.443359 0.706116)"/>
</clipPath>
</defs>
</svg>
