<svg width="29" height="31" viewBox="0 0 29 31" fill="none" xmlns="http://www.w3.org/2000/svg">
<path d="M21.3929 2.41139L17.8745 1.62921C17.1711 3.036 15.7615 3.73939 14.3547 3.73939C12.9479 3.73939 11.5397 3.036 10.8349 1.62921L7.31655 2.41139M21.3929 2.41139L21.9992 2.54503C23.4172 2.86015 24.6918 3.70141 25.2067 5.05896C26.1365 7.52084 26.9018 11.4542 27.0102 17.1025C27.0242 17.7594 27.0299 18.0886 26.8231 18.2996C26.6163 18.5107 26.2829 18.5107 25.616 18.5107H22.7476M21.3929 2.41139C21.3929 5.66106 21.6967 11.2952 22.7476 18.5107M7.31655 2.41139L6.70882 2.54503C5.29218 2.86015 4.01764 3.70141 3.50416 5.05896C2.57286 7.52084 1.80898 11.4542 1.69925 17.1025C1.68518 17.7594 1.67955 18.0886 1.88635 18.2996C2.09315 18.5107 2.42656 18.5107 3.09338 18.5107H5.96181M7.31655 2.41139C7.31655 5.66106 7.01268 11.2952 5.96181 18.5107M22.7476 18.5107C22.9502 19.9006 23.3497 22.1936 23.6789 24.0393C23.9279 25.4321 24.0531 26.1284 23.5804 26.995C23.1091 27.863 22.6322 28.0627 21.6784 28.4623C20.0902 29.1291 17.7 29.765 14.3547 29.765C11.0108 29.765 8.61924 29.1291 7.03097 28.4623C6.07717 28.0627 5.60027 27.863 5.129 26.995C4.65632 26.1284 4.78152 25.4321 5.03052 24.0393C5.35971 22.1936 5.75924 19.9006 5.96181 18.5107" stroke="#1953A2" stroke-width="2" stroke-linecap="round" stroke-linejoin="round"/>
<path d="M17.2121 3.03601C17.0053 7.92882 17.3359 18.1562 22.7956 19.9175M11.4991 3.03601C11.7045 7.92882 11.3725 18.1562 5.91418 19.9175" stroke="#1953A2" stroke-width="2" stroke-linecap="round" stroke-linejoin="round"/>
<circle cx="14.3545" cy="17.5721" r="1.875" fill="#2392D1"/>
<circle cx="14.3545" cy="23.0096" r="1.875" fill="#2392D1"/>
</svg>
