<svg width="36" height="32" viewBox="0 0 36 32" fill="none" xmlns="http://www.w3.org/2000/svg">
<path d="M35.5396 31.0494H32.5812V15.1906C32.5714 14.9795 32.5132 14.7732 32.4108 14.5866C32.3085 14.4 32.1645 14.2379 31.9895 14.112L18.7356 3.53178C18.4632 3.32138 18.1253 3.20681 17.777 3.20681C17.4288 3.20681 17.0909 3.32138 16.8185 3.53178L3.58824 14.112C3.42624 14.2446 3.2958 14.4097 3.20592 14.5959C3.11603 14.7821 3.06882 14.985 3.06755 15.1906V31.0494H0.0380859V15.1906C0.0389567 14.5589 0.18366 13.9351 0.461864 13.3638C0.740069 12.7925 1.14491 12.2878 1.64749 11.8858L14.9487 1.32853C15.7453 0.692504 16.7451 0.344727 17.777 0.344727C18.8089 0.344727 19.8087 0.692504 20.6053 1.32853L33.9302 11.8858C34.4328 12.2878 34.8377 12.7925 35.1159 13.3638C35.3941 13.9351 35.5388 14.5589 35.5396 15.1906V31.0494Z" fill="#1953A2"/>
<path d="M17.7889 12.3361C16.5606 12.3361 15.3826 12.8241 14.5141 13.6926C13.6456 14.5611 13.1576 15.7391 13.1576 16.9674H22.4201C22.4201 15.7391 21.9322 14.5611 21.0637 13.6926C20.1951 12.8241 19.0172 12.3361 17.7889 12.3361ZM17.7889 12.3361V8.47675M15.4732 16.9674C15.4732 17.5815 15.7172 18.1705 16.1515 18.6048C16.5857 19.039 17.1747 19.283 17.7889 19.283C18.403 19.283 18.992 19.039 19.4263 18.6048C19.8605 18.1705 20.1045 17.5815 20.1045 16.9674M12.3857 16.9674H23.192M17.7889 22.3705V23.9142M20.1045 21.5986L21.6482 22.7564M15.4732 21.5986L13.9295 22.7564" stroke="#2392D1" stroke-width="2" stroke-linecap="round" stroke-linejoin="round"/>
<line x1="0.0465598" y1="29.5495" x2="35.5485" y2="29.75" stroke="#1953A2" stroke-width="3"/>
</svg>
