<svg width="32" height="36" viewBox="0 0 32 36" fill="none" xmlns="http://www.w3.org/2000/svg">
<path d="M2.92898 29.5863L0.755859 27.4513L7.00836 21.1988C7.79628 20.4109 8.33663 19.4263 8.62943 18.2449C8.92223 17.0635 9.06813 15.2523 9.06711 12.8113C9.06711 11.3372 9.39753 9.8884 10.0584 8.46507C10.7192 7.04174 11.6596 5.72007 12.8796 4.50007C15.1925 2.18715 17.7469 0.878194 20.5427 0.573194C23.3386 0.268194 25.6388 1.0434 27.4434 2.89882C29.2734 4.72882 30.0359 7.04174 29.7309 9.83757C29.4259 12.6334 28.1296 15.1751 25.8421 17.4626C24.6221 18.6826 23.3004 19.623 21.8771 20.2838C20.4538 20.9447 19.005 21.2751 17.5309 21.2751C15.0654 21.2751 13.2609 21.4149 12.1171 21.6944C10.9734 21.974 9.99482 22.5205 9.18148 23.3338L2.92898 29.5863ZM13.4134 16.8526C14.6079 18.0217 16.2219 18.4538 18.2552 18.1488C20.2886 17.8438 22.1059 16.8907 23.7071 15.2894C25.3338 13.6628 26.3062 11.8389 26.6244 9.81775C26.9426 7.79661 26.504 6.21468 25.3084 5.07194C24.0884 3.85194 22.4937 3.39444 20.5244 3.69944C18.5552 4.00444 16.744 4.97028 15.0909 6.59694C13.4896 8.19819 12.5177 10.0094 12.1751 12.0305C11.8324 14.0517 12.2452 15.659 13.4134 16.8526ZM25.1559 34.1613C23.4784 34.1613 22.0423 33.564 20.8477 32.3694C19.6532 31.1749 19.0559 29.7388 19.0559 28.0613C19.0559 26.3838 19.6532 24.9478 20.8477 23.7532C22.0423 22.5586 23.4784 21.9613 25.1559 21.9613C26.8334 21.9613 28.2694 22.5586 29.464 23.7532C30.6586 24.9478 31.2559 26.3838 31.2559 28.0613C31.2559 29.7388 30.6586 31.1749 29.464 32.3694C28.2694 33.564 26.8334 34.1613 25.1559 34.1613Z" fill="#1953A2"/>
<circle cx="24.5059" cy="28.6674" r="6.75" fill="#2392D1"/>
</svg>
