<svg width="31" height="31" viewBox="0 0 31 31" fill="none" xmlns="http://www.w3.org/2000/svg">
<path d="M3.7287 9.07009V23.6495C3.7287 26.1491 3.7287 27.3977 4.50538 28.1744C5.28206 28.951 6.53059 28.951 9.03028 28.951H22.2842C24.7839 28.951 26.0325 28.951 26.8091 28.1744C27.5858 27.3977 27.5858 26.1491 27.5858 23.6495V9.07009M22.2842 9.07009C22.2842 7.31251 21.586 5.62691 20.3432 4.38411C19.1004 3.14131 17.4148 2.44312 15.6573 2.44312C13.8997 2.44312 12.2141 3.14131 10.9713 4.38411C9.72848 5.62691 9.03028 7.31251 9.03028 9.07009" stroke="#1953A2" stroke-width="3" stroke-linecap="round" stroke-linejoin="round"/>
<path d="M18.3081 28.951V23.6494C18.3081 22.9464 18.0288 22.2722 17.5317 21.775C17.0346 21.2779 16.3603 20.9986 15.6573 20.9986C14.9542 20.9986 14.28 21.2779 13.7829 21.775C13.2858 22.2722 13.0065 22.9464 13.0065 23.6494V28.951M11.6811 3.76849H5.6797C5.26883 3.76849 4.85133 3.87718 4.5213 4.20455C3.53786 5.17871 2.97059 6.801 2.40332 9.07008H9.0303M19.6335 3.76849H25.6349C26.0457 3.76849 26.4632 3.87718 26.7933 4.20455C27.7767 5.17871 28.344 6.801 28.9112 9.07008H22.2843M7.7049 14.3717H8.3676M7.7049 19.0105H8.3676M22.947 14.3717H23.6097M22.947 19.0105H23.6097M13.6692 10.3955V12.3836M13.6692 12.3836V14.3717M13.6692 12.3836H17.6454M17.6454 10.3955V12.3836M17.6454 12.3836V14.3717" stroke="#1953A2" stroke-width="3" stroke-linecap="round" stroke-linejoin="round"/>
<circle cx="8.09845" cy="14.1021" r="2.25763" fill="#2392D1"/>
<circle cx="23.0984" cy="14.1021" r="2.25763" fill="#2392D1"/>
<circle cx="8.09845" cy="19.3521" r="2.25763" fill="#2392D1"/>
<circle cx="23.0984" cy="19.3521" r="2.25763" fill="#2392D1"/>
</svg>
