<svg width="32" height="31" viewBox="0 0 32 31" fill="none" xmlns="http://www.w3.org/2000/svg">
<path fill-rule="evenodd" clip-rule="evenodd" d="M21.0328 0.722942C21.1388 0.813789 21.2259 0.924635 21.289 1.04914C21.3521 1.17365 21.3901 1.30938 21.4008 1.44858C21.4114 1.58777 21.3946 1.72771 21.3511 1.86038C21.3077 1.99304 21.2385 2.11585 21.1476 2.22178L17.7943 6.13461H21.8361C23.7726 6.13461 25.3352 6.13461 26.5635 6.30036C27.8385 6.47036 28.9123 6.83869 29.7651 7.69011C30.618 8.54294 30.9835 9.61677 31.1563 10.8918C31.3206 12.12 31.3206 13.6826 31.3206 15.6192V21.4417C31.3206 23.3783 31.3206 24.9409 31.1563 26.1691C30.9835 27.4441 30.618 28.5179 29.7651 29.3708C28.9123 30.2236 27.8385 30.5891 26.5635 30.7619C25.3352 30.9263 23.7726 30.9263 21.8361 30.9263H10.3469C8.41031 30.9263 6.84772 30.9263 5.61947 30.7619C4.34447 30.5891 3.27064 30.2236 2.4178 29.3708C1.56497 28.5179 1.19947 27.4441 1.02805 26.1691C0.862305 24.9409 0.862305 23.3783 0.862305 21.4417V15.6192C0.862305 13.6826 0.862305 12.12 1.02805 10.8918C1.19805 9.61677 1.56639 8.54294 2.4178 7.69011C3.27064 6.83728 4.34447 6.47178 5.61947 6.30036C6.84772 6.13461 8.41031 6.13461 10.3469 6.13461H14.3886L11.034 2.22178C10.9378 2.11673 10.8637 1.99341 10.8161 1.85916C10.7685 1.7249 10.7484 1.58245 10.757 1.44027C10.7656 1.29809 10.8026 1.15908 10.866 1.03152C10.9294 0.903952 11.0177 0.79043 11.1259 0.697701C11.234 0.604973 11.3596 0.53493 11.4954 0.491738C11.6311 0.448546 11.7741 0.433086 11.916 0.446278C12.0578 0.45947 12.1955 0.501044 12.321 0.568528C12.4464 0.636013 12.557 0.72803 12.6461 0.839109L16.0915 4.85678L19.534 0.839109C19.6248 0.73311 19.7357 0.646053 19.8602 0.582914C19.9847 0.519775 20.1204 0.481791 20.2596 0.471135C20.3988 0.460478 20.5387 0.477357 20.6714 0.520806C20.8041 0.564256 20.9269 0.633424 21.0328 0.724359M22.8206 8.26102V28.8027C24.3025 28.797 25.4075 28.7744 26.2801 28.6568C27.32 28.5165 27.8696 28.2601 28.2621 27.8691C28.6545 27.4767 28.9095 26.927 29.0497 25.8858C29.1928 24.8162 29.1956 23.3981 29.1956 21.3652V15.6985C29.1956 13.6656 29.1928 12.2461 29.0497 11.1765C28.9095 10.1367 28.6531 9.58702 28.2621 9.19461C27.8696 8.80219 27.32 8.54719 26.2787 8.40694C25.4075 8.28936 24.3025 8.26528 22.8206 8.26102ZM20.6956 28.8041V8.25961H10.4248C8.39189 8.25961 6.97239 8.26244 5.90281 8.40553C4.86297 8.54578 4.3133 8.80219 3.92089 9.19319C3.52847 9.58561 3.27347 10.1353 3.13322 11.1765C2.99014 12.2447 2.9873 13.6642 2.9873 15.6971V21.3638C2.9873 23.3967 2.99014 24.8148 3.13322 25.8858C3.27347 26.9256 3.52989 27.4753 3.92089 27.8677C4.3133 28.2601 4.86297 28.5151 5.90422 28.6554C6.97239 28.7984 8.39189 28.8013 10.4248 28.8013L20.6956 28.8041Z" fill="#1953A2"/>
<path d="M27.4251 21.3637C27.4251 20.988 27.2759 20.6277 27.0102 20.362C26.7445 20.0963 26.3842 19.9471 26.0085 19.9471C25.6327 19.9471 25.2724 20.0963 25.0067 20.362C24.7411 20.6277 24.5918 20.988 24.5918 21.3637C24.5918 21.7395 24.7411 22.0998 25.0067 22.3655C25.2724 22.6311 25.6327 22.7804 26.0085 22.7804C26.3842 22.7804 26.7445 22.6311 27.0102 22.3655C27.2759 22.0998 27.4251 21.7395 27.4251 21.3637ZM27.4251 15.6971C27.4251 15.3213 27.2759 14.961 27.0102 14.6953C26.7445 14.4297 26.3842 14.2804 26.0085 14.2804C25.6327 14.2804 25.2724 14.4297 25.0067 14.6953C24.7411 14.961 24.5918 15.3213 24.5918 15.6971C24.5918 16.0728 24.7411 16.4331 25.0067 16.6988C25.2724 16.9645 25.6327 17.1137 26.0085 17.1137C26.3842 17.1137 26.7445 16.9645 27.0102 16.6988C27.2759 16.4331 27.4251 16.0728 27.4251 15.6971Z" fill="#1953A2"/>
<circle cx="26.0086" cy="15.3521" r="2.25763" fill="#2392D1"/>
<circle cx="26.0086" cy="21.3521" r="2.25763" fill="#2392D1"/>
</svg>
