<svg width="26" height="16" viewBox="0 0 26 16" fill="none" xmlns="http://www.w3.org/2000/svg">
<path d="M22.6516 0.727173H5.98404C4.80119 0.727173 3.83339 1.69496 3.83339 2.8778V3.68429C3.83339 3.98 4.07534 4.22195 4.37106 4.22195C4.66677 4.22195 4.90872 3.98 4.90872 3.68429V2.8778C4.90872 2.77026 4.9356 2.66276 4.96248 2.55522L10.9843 7.71675L4.96248 12.8783C4.9356 12.7708 4.90872 12.6632 4.90872 12.5557V11.7492C4.90872 11.4535 4.66677 11.2116 4.37106 11.2116C4.07534 11.2116 3.83339 11.4535 3.83339 11.7492V12.5557C3.83339 13.7386 4.80119 14.7064 5.98404 14.7064H22.6516C23.8345 14.7064 24.8022 13.7386 24.8022 12.5557V2.8778C24.8022 1.69496 23.8345 0.727173 22.6516 0.727173ZM5.76898 1.82938C5.82274 1.8025 5.90339 1.8025 5.98404 1.8025H22.6516C22.7322 1.8025 22.8129 1.8025 22.8667 1.82938L14.6673 8.84585C14.4523 9.00714 14.1834 9.00714 13.9684 8.84585L5.76898 1.82938ZM22.6516 13.631H5.98404C5.90339 13.631 5.82274 13.631 5.76898 13.6042L11.8177 8.41571L13.2694 9.67922C13.5651 9.94805 13.9415 10.0825 14.3178 10.0825C14.6942 10.0825 15.0706 9.94805 15.3663 9.67922L16.818 8.41571L22.8667 13.6042C22.8129 13.631 22.7322 13.631 22.6516 13.631ZM23.7269 12.5557C23.7269 12.6632 23.7 12.7708 23.6732 12.8783L17.6513 7.71675L23.6732 2.55522C23.7 2.66276 23.7269 2.77026 23.7269 2.8778V12.5557ZM2.22041 6.3726C2.22041 6.07688 2.46236 5.83494 2.75807 5.83494H5.98404C6.27976 5.83494 6.5217 6.07688 6.5217 6.3726C6.5217 6.66831 6.27976 6.91026 5.98404 6.91026H2.75807C2.46236 6.91026 2.22041 6.66831 2.22041 6.3726ZM5.98404 9.59857H1.14508C0.84937 9.59857 0.607422 9.35662 0.607422 9.06091C0.607422 8.76519 0.84937 8.52325 1.14508 8.52325H5.98404C6.27976 8.52325 6.5217 8.76519 6.5217 9.06091C6.5217 9.35662 6.27976 9.59857 5.98404 9.59857Z" fill="#2392D1" stroke="#2392D1"/>
</svg>
