<svg width="16" height="17" viewBox="0 0 16 17" fill="none" xmlns="http://www.w3.org/2000/svg">
<path d="M14.9923 15.5633L11.7351 12.1251M11.7351 12.1251C12.2923 11.537 12.7342 10.8388 13.0358 10.0704C13.3373 9.30198 13.4925 8.47839 13.4925 7.64667C13.4925 6.81494 13.3373 5.99136 13.0358 5.22294C12.7342 4.45453 12.2923 3.75633 11.7351 3.16821C11.1779 2.58009 10.5165 2.11357 9.7885 1.79528C9.06053 1.47699 8.28029 1.31317 7.49234 1.31317C6.70439 1.31317 5.92415 1.47699 5.19618 1.79528C4.46821 2.11357 3.80676 2.58009 3.24959 3.16821C2.12434 4.35597 1.49219 5.96692 1.49219 7.64667C1.49219 9.32642 2.12434 10.9374 3.24959 12.1251C4.37484 13.3129 5.901 13.9802 7.49234 13.9802C9.08368 13.9802 10.6098 13.3129 11.7351 12.1251Z" stroke="black" stroke-width="1.5" stroke-linecap="round" stroke-linejoin="round"/>
</svg>
