<svg width="19" height="20" viewBox="0 0 19 20" fill="none" xmlns="http://www.w3.org/2000/svg">
<path d="M11.4247 14.68L7.40064 12.4855C6.87528 13.0471 6.19313 13.4377 5.44284 13.6066C4.69255 13.7755 3.90881 13.7147 3.19349 13.4323C2.47816 13.1499 1.86431 12.6589 1.43173 12.023C0.999146 11.3872 0.767822 10.6359 0.767822 9.86682C0.767822 9.09776 0.999146 8.34648 1.43173 7.71062C1.86431 7.07476 2.47816 6.58371 3.19349 6.3013C3.90881 6.01889 4.69255 5.95817 5.44284 6.12703C6.19313 6.29589 6.87528 6.68653 7.40064 7.24817L11.4256 5.05359C11.1975 4.14889 11.3071 3.19202 11.734 2.36237C12.1608 1.53271 12.8756 0.887219 13.7444 0.546898C14.6131 0.206577 15.5762 0.19479 16.453 0.513747C17.3298 0.832703 18.0602 1.4605 18.5073 2.27947C18.9543 3.09843 19.0873 4.05232 18.8814 4.96234C18.6754 5.87235 18.1446 6.676 17.3885 7.22265C16.6323 7.7693 15.7028 8.02141 14.7741 7.93172C13.8454 7.84203 12.9813 7.4167 12.3437 6.73546L8.31873 8.93005C8.47353 9.54464 8.47353 10.188 8.31873 10.8026L12.3437 12.9972C12.9816 12.3163 13.8459 11.8914 14.7746 11.8022C15.7034 11.7129 16.6328 11.9655 17.3886 12.5125C18.1445 13.0595 18.6749 13.8634 18.8804 14.7734C19.086 15.6835 18.9525 16.6373 18.5051 17.4561C18.0577 18.2748 17.3271 18.9023 16.4502 19.2209C15.5732 19.5395 14.6102 19.5273 13.7416 19.1866C12.873 18.8459 12.1585 18.2002 11.732 17.3704C11.3054 16.5406 11.1962 15.5837 11.4247 14.6791M4.60135 11.783C5.10968 11.783 5.5972 11.5811 5.95664 11.2216C6.31609 10.8622 6.51802 10.3747 6.51802 9.86634C6.51802 9.35801 6.31609 8.87049 5.95664 8.51105C5.5972 8.15161 5.10968 7.94967 4.60135 7.94967C4.09302 7.94967 3.60551 8.15161 3.24606 8.51105C2.88662 8.87049 2.68469 9.35801 2.68469 9.86634C2.68469 10.3747 2.88662 10.8622 3.24606 11.2216C3.60551 11.5811 4.09302 11.783 4.60135 11.783ZM15.143 6.033C15.6514 6.033 16.1389 5.83107 16.4983 5.47163C16.8578 5.11218 17.0597 4.62467 17.0597 4.11634C17.0597 3.60801 16.8578 3.12049 16.4983 2.76105C16.1389 2.4016 15.6514 2.19967 15.143 2.19967C14.6347 2.19967 14.1472 2.4016 13.7877 2.76105C13.4283 3.12049 13.2264 3.60801 13.2264 4.11634C13.2264 4.62467 13.4283 5.11218 13.7877 5.47163C14.1472 5.83107 14.6347 6.033 15.143 6.033ZM15.143 17.533C15.6514 17.533 16.1389 17.3311 16.4983 16.9716C16.8578 16.6122 17.0597 16.1247 17.0597 15.6163C17.0597 15.108 16.8578 14.6205 16.4983 14.2611C16.1389 13.9016 15.6514 13.6997 15.143 13.6997C14.6347 13.6997 14.1472 13.9016 13.7877 14.2611C13.4283 14.6205 13.2264 15.108 13.2264 15.6163C13.2264 16.1247 13.4283 16.6122 13.7877 16.9716C14.1472 17.3311 14.6347 17.533 15.143 17.533Z" fill="#2392D1"/>
</svg>
