<svg width="12" height="6" viewBox="0 0 12 6" fill="none" xmlns="http://www.w3.org/2000/svg">
<path d="M0.50695 5.88H3.31696L5.22695 4.95L7.09695 5.88H9.22695C9.34695 5.8 9.47695 5.75 9.62695 5.75C9.77695 5.75 9.90695 5.8 10.027 5.88H11.4969C11.2369 5.09 10.497 4.52 9.62695 4.52C9.09695 4.52 8.60695 4.74 8.25695 5.08L6.63696 4.27L8.32695 3.45C8.67695 3.76 9.12696 3.96 9.63696 3.96C10.727 3.96 11.617 3.07 11.617 1.98C11.617 0.89 10.727 0 9.63696 0C8.54696 0 7.65695 0.89 7.65695 1.98C7.65695 2.12 7.67695 2.26 7.70695 2.4L5.25695 3.59L0.916954 1.44L0.376953 2.54L3.86695 4.27L0.526955 5.89L0.50695 5.88ZM9.62695 1.23C10.047 1.23 10.377 1.57 10.377 1.98C10.377 2.39 10.037 2.73 9.62695 2.73C9.21695 2.73 8.87695 2.39 8.87695 1.98C8.87695 1.57 9.21695 1.23 9.62695 1.23Z" fill="#1E53A0"/>
</svg>
