<svg width="25" height="25" viewBox="0 0 25 25" fill="none" xmlns="http://www.w3.org/2000/svg">
<path d="M21.6561 1.85022H3.38624C2.94574 1.85022 2.52328 2.02521 2.21181 2.33668C1.90033 2.64816 1.72534 3.07062 1.72534 3.51111V11.8156C1.72534 12.2561 1.90033 12.6785 2.21181 12.99C2.52328 13.3015 2.94574 13.4765 3.38624 13.4765H21.6561C22.0966 13.4765 22.519 13.3015 22.8305 12.99C23.142 12.6785 23.317 12.2561 23.317 11.8156V3.51111C23.317 3.07062 23.142 2.64816 22.8305 2.33668C22.519 2.02521 22.0966 1.85022 21.6561 1.85022Z" stroke="#1953A2" stroke-width="3" stroke-linecap="round" stroke-linejoin="round"/>
<path d="M19.1647 13.4765V10.1547C19.1647 9.71419 18.9898 9.29173 18.6783 8.98025C18.3668 8.66878 17.9443 8.49379 17.5038 8.49379H7.53849C7.09799 8.49379 6.67554 8.66878 6.36406 8.98025C6.05258 9.29173 5.8776 9.71419 5.8776 10.1547V13.4765M5.04715 21.7809H5.21324C5.82993 21.7809 6.42137 21.536 6.85744 21.0999C7.29351 20.6638 7.53849 20.0724 7.53849 19.4557V17.6287M19.9952 21.7809H19.8291C19.2124 21.7809 18.621 21.536 18.1849 21.0999C17.7488 20.6638 17.5038 20.0724 17.5038 19.4557V17.6287M12.5212 23.4418V17.6287" stroke="#8BC3E5" stroke-width="3" stroke-linecap="round" stroke-linejoin="round"/>
</svg>
