<svg width="27" height="26" viewBox="0 0 27 26" fill="none" xmlns="http://www.w3.org/2000/svg">
<path d="M16.6867 4.04263C18.8704 3.12069 23.3166 2.59034 24.7971 7.50635C26.2776 12.4224 19.9129 16.0977 20.0781 12.2683C20.2427 8.43828 24.7789 11.591 24.6819 14.3626C24.5849 17.1343 21.7056 17.4389 21.7056 17.4389" stroke="#1953A2" stroke-width="3" stroke-linecap="round" stroke-linejoin="round"/>
<path d="M14.2123 2.15995L3.00997 8.6276C2.44753 8.95233 2.25482 9.67152 2.57955 10.234L4.93142 14.3075C5.25614 14.87 5.97534 15.0627 6.53778 14.7379L17.7401 8.27029C18.3025 7.94557 18.4952 7.22638 18.1705 6.66393L15.8186 2.59037C15.4939 2.02793 14.7747 1.83522 14.2123 2.15995Z" stroke="#1953A2" stroke-width="3" stroke-linejoin="round"/>
<path d="M12.1393 11.5039L16.5491 19.1417" stroke="#1953A2" stroke-width="3" stroke-linecap="round" stroke-linejoin="round"/>
<path d="M18.958 19.7873C18.4709 18.9436 17.3922 18.6546 16.5485 19.1416C15.7048 19.6287 15.4158 20.7075 15.9029 21.5512L17.0788 23.588C17.5659 24.4316 18.6447 24.7207 19.4883 24.2336C20.332 23.7465 20.6211 22.6677 20.134 21.8241L18.958 19.7873Z" stroke="#1953A2" stroke-width="3" stroke-linejoin="round"/>
<path d="M6.20145 4.74819L9.25712 2.98428M12.3751 15.441L15.4308 13.6771" stroke="#2392D1" stroke-width="3" stroke-linecap="round" stroke-linejoin="round"/>
</svg>
