<svg width="17" height="30" viewBox="0 0 17 30" fill="none" xmlns="http://www.w3.org/2000/svg">
<path d="M14.6749 26.7183H2.36676C1.34483 26.717 0.516452 25.8886 0.515137 24.8667V2.87628C0.516454 1.85435 1.3448 1.02729 2.36676 1.02466H14.6749C15.6968 1.02729 16.5252 1.85432 16.5265 2.87628V24.8667C16.5252 25.8886 15.6969 26.717 14.6749 26.7183ZM2.36676 2.10464C1.94008 2.10596 1.59502 2.45098 1.5937 2.87638V24.8668C1.59502 25.2934 1.94004 25.6385 2.36676 25.6398H14.6749C15.1016 25.6385 15.4467 25.2935 15.448 24.8668V2.87638C15.4467 2.45101 15.1016 2.10595 14.6749 2.10464H2.36676Z" fill="#1953A2" stroke="#1953A2" stroke-width="0.8"/>
<path d="M15.9868 14.4115H1.05537C0.756423 14.4115 0.515411 14.1691 0.515411 13.8715C0.515411 13.5739 0.75641 13.3329 1.05537 13.3329H15.9868C16.2857 13.3329 16.5267 13.5739 16.5267 13.8715C16.5267 14.1691 16.2857 14.4115 15.9868 14.4115Z" fill="#1953A2"/>
<path d="M12 11.3378H5.04114C4.19962 11.3378 3.51746 10.6556 3.51614 9.8141V1.56472C3.51614 1.26709 3.75846 1.02476 4.0561 1.02476H12.9848C13.1284 1.02476 13.2653 1.0827 13.3667 1.18279C13.4681 1.2842 13.5248 1.42116 13.5248 1.5647V9.81408C13.5234 10.6556 12.8415 11.3378 12 11.3378ZM4.59478 2.10464V9.81393C4.59609 10.0589 4.79495 10.2591 5.04121 10.2591H12C12.2463 10.2591 12.4452 10.0589 12.4465 9.81393V2.10464H4.59478Z" fill="#1953A2"/>
<path d="M11.4446 3.97743H10.6109C10.3133 3.97743 10.0723 3.73643 10.0723 3.43879C10.0723 3.14116 10.3133 2.89883 10.6109 2.89883H11.4472C11.7448 2.89883 11.9858 3.14115 11.9858 3.43879C11.9858 3.73641 11.7448 3.97743 11.4472 3.97743H11.4446Z" fill="#2392D1"/>
<path d="M8.93835 3.97743H8.1034C7.80578 3.97743 7.56345 3.73643 7.56345 3.43879C7.56345 3.14116 7.80576 2.89883 8.1034 2.89883H8.93835C9.23598 2.89883 9.47831 3.14115 9.47831 3.43879C9.47831 3.73641 9.23599 3.97743 8.93835 3.97743Z" fill="#2392D1"/>
<path d="M6.43222 3.97743H5.59727C5.29832 3.97743 5.05731 3.73643 5.05731 3.43879C5.05731 3.14116 5.29831 2.89883 5.59727 2.89883H6.43222C6.72985 2.89883 6.97218 3.14115 6.97218 3.43879C6.97218 3.73641 6.72986 3.97743 6.43222 3.97743Z" fill="#2392D1"/>
<path d="M11.4446 6.66273H10.6109C10.3133 6.66273 10.0723 6.42173 10.0723 6.12408C10.0723 5.82646 10.3133 5.58413 10.6109 5.58413H11.4472C11.7448 5.58413 11.9858 5.82644 11.9858 6.12408C11.9858 6.42171 11.7448 6.66273 11.4472 6.66273H11.4446Z" fill="#2392D1"/>
<path d="M8.93835 6.66273H8.1034C7.80578 6.66273 7.56345 6.42173 7.56345 6.12408C7.56345 5.82646 7.80576 5.58413 8.1034 5.58413H8.93835C9.23598 5.58413 9.47831 5.82644 9.47831 6.12408C9.47831 6.42171 9.23599 6.66273 8.93835 6.66273Z" fill="#2392D1"/>
<path d="M6.43222 6.66273H5.59727C5.29832 6.66273 5.05731 6.42173 5.05731 6.12408C5.05731 5.82646 5.29831 5.58413 5.59727 5.58413H6.43222C6.72985 5.58413 6.97218 5.82644 6.97218 6.12408C6.97218 6.42171 6.72986 6.66273 6.43222 6.66273Z" fill="#2392D1"/>
<path d="M11.4446 9.34936H10.6109C10.3133 9.34936 10.0723 9.10704 10.0723 8.8094C10.0723 8.51177 10.3133 8.26944 10.6109 8.26944H11.4472C11.7448 8.26944 11.9858 8.51176 11.9858 8.8094C11.9858 9.10703 11.7448 9.34936 11.4472 9.34936H11.4446Z" fill="#2392D1"/>
<path d="M8.93835 9.34936H8.1034C7.80578 9.34936 7.56345 9.10704 7.56345 8.8094C7.56345 8.51177 7.80576 8.26944 8.1034 8.26944H8.93835C9.23598 8.26944 9.47831 8.51176 9.47831 8.8094C9.47831 9.10703 9.23599 9.34936 8.93835 9.34936Z" fill="#2392D1"/>
<path d="M6.43222 9.34936H5.59727C5.29832 9.34936 5.05731 9.10704 5.05731 8.8094C5.05731 8.51177 5.29831 8.26944 5.59727 8.26944H6.43222C6.72985 8.26944 6.97218 8.51176 6.97218 8.8094C6.97218 9.10703 6.72986 9.34936 6.43222 9.34936Z" fill="#2392D1"/>
<path d="M10.3344 17.8725C10.0354 17.8817 9.78782 17.6473 9.77862 17.3497C9.7694 17.0507 10.0038 16.8031 10.3028 16.7939C10.7887 16.765 11.168 16.362 11.168 15.8747V14.4116H5.87529V15.8747C5.87529 16.362 6.25457 16.7649 6.74052 16.7952C7.03814 16.8124 7.26598 17.0678 7.24754 17.3655C7.23042 17.6644 6.97361 17.8909 6.67599 17.8738C5.61981 17.8093 4.79672 16.9348 4.79541 15.876V13.8716C4.79541 13.574 5.03773 13.333 5.33537 13.333H11.7066C11.8501 13.333 11.9871 13.3896 12.0885 13.491C12.1899 13.5911 12.2465 13.7294 12.2465 13.8716V15.8747C12.2465 16.9322 11.4221 17.8079 10.3659 17.8712L10.3344 17.8725Z" fill="#1953A2"/>
<path d="M9.50459 24.8495H7.53709C6.78117 24.8495 6.16879 24.2372 6.16879 23.4812V16.3343C6.16879 15.5797 6.78117 14.9673 7.53709 14.966H9.5059H9.50459C10.2605 14.9673 10.8729 15.5797 10.8729 16.3343V23.4812C10.8729 24.2372 10.2605 24.8495 9.50459 24.8495ZM7.53709 16.0445C7.37643 16.0459 7.24737 16.1749 7.24737 16.3343V23.4826C7.24737 23.6419 7.37642 23.771 7.53709 23.771H9.5059H9.50459C9.66525 23.771 9.79431 23.6419 9.79431 23.4826V16.3343C9.79431 16.1749 9.66525 16.0459 9.50459 16.0445H7.53709Z" fill="#1953A2"/>
<path d="M13.6912 29.0759H11.3339C11.0362 29.0759 10.7939 28.8336 10.7939 28.5359V26.1799C10.7939 25.881 11.0362 25.6399 11.3339 25.6399H13.6912C13.8334 25.6399 13.9704 25.6966 14.0718 25.798C14.1732 25.8994 14.2298 26.0363 14.2298 26.1799V28.5359C14.2298 28.6794 14.1732 28.8164 14.0718 28.9178C13.9704 29.0179 13.8334 29.0759 13.6912 29.0759ZM11.8738 27.9973H13.1513V26.7185H11.8738V27.9973Z" fill="#1953A2"/>
<path d="M5.7077 29.0759H3.35038C3.05275 29.0759 2.81174 28.8336 2.81174 28.5359V26.1799C2.81174 25.881 3.05273 25.6399 3.35038 25.6399H5.7077C5.85125 25.6399 5.98821 25.6966 6.08961 25.798C6.1897 25.8994 6.24764 26.0363 6.24764 26.1799V28.5359C6.24764 28.8335 6.00534 29.0759 5.7077 29.0759ZM3.89034 27.9973H5.16778V26.7185H3.89034V27.9973Z" fill="#1953A2"/>
</svg>
