<svg width="25" height="27" viewBox="0 0 25 27" fill="none" xmlns="http://www.w3.org/2000/svg">
<path fill-rule="evenodd" clip-rule="evenodd" d="M24.0774 2.75048C24.2672 3.04383 24.3342 3.37983 24.2662 3.69753C24.188 4.05687 22.6157 11.334 22.6157 11.334C22.4553 12.078 21.7955 12.5896 21.0636 12.5896C20.954 12.5896 20.8424 12.5774 20.7307 12.5531L12.8861 10.8711L12.7673 11.4243C12.7247 11.6233 12.609 11.7979 12.4486 11.9014C12.3471 11.9674 12.2334 12.0019 12.1187 12.0019C12.0781 12.0019 12.0365 11.9968 11.9969 11.9887L11.3523 11.8506L10.99 13.5407L11.2133 13.5884C11.9137 13.7407 12.3613 14.433 12.2121 15.1313L12.0253 16.0013H18.4924C18.601 16.0013 18.7046 16.0449 18.7817 16.1231C18.8579 16.2002 18.8995 16.3058 18.8985 16.4144C18.8447 19.6546 16.6907 22.5151 13.3908 23.7827V24.6719C13.3908 25.2038 12.9573 25.6372 12.4254 25.6372H7.22309C6.69017 25.6372 6.25777 25.2038 6.25777 24.6719V23.7827C2.95679 22.5149 0.803862 19.6543 0.750071 16.4144C0.748041 16.3058 0.789658 16.2002 0.865788 16.1231C0.942933 16.0449 1.04647 16.0013 1.1561 16.0013H8.06885L8.42818 14.3213C8.58044 13.6209 9.27171 13.1733 9.97109 13.3225L10.1964 13.3712L10.5588 11.6801L9.98224 11.5563C9.63712 11.4812 9.43105 11.1167 9.51327 10.728L9.63508 10.1616C9.27575 10.0529 8.96615 9.82964 8.75907 9.50989C8.52763 9.15258 8.44947 8.72828 8.53778 8.31514L9.60767 3.3282C9.697 2.91403 9.94164 2.5598 10.2989 2.32935C10.5375 2.17506 10.8075 2.09589 11.0836 2.08168L11.2744 1.1874C11.3698 0.745848 11.7454 0.463642 12.1301 0.546901L14.2648 1.00368C14.3582 0.876796 14.4729 0.764121 14.6099 0.675816C14.9063 0.483968 15.2576 0.419004 15.6006 0.493105L23.1701 2.11621C23.5365 2.19437 23.8673 2.42566 24.0774 2.75048ZM9.22183 14.4919L8.89903 16.0013H9.63191L10.0258 14.1651L9.80142 14.1174C9.53954 14.0605 9.27869 14.229 9.22183 14.4919ZM12.9188 23.0976C15.8667 22.0379 17.846 19.6067 18.0664 16.8143H1.58148C1.80175 19.6067 3.78113 22.0379 6.72979 23.0976H12.9188ZM13.3238 21.8308C13.1858 21.8308 13.0508 21.7598 12.9746 21.6329C12.8599 21.44 12.9229 21.1913 13.1157 21.0756C14.1156 20.4788 15.6017 19.0018 16.1732 18.0384C16.2879 17.8445 16.5366 17.7816 16.7295 17.8953C16.9224 18.01 16.9863 18.2597 16.8726 18.4515C16.2352 19.5265 14.6425 21.1091 13.5321 21.7728C13.4672 21.8124 13.3951 21.8306 13.324 21.8306L13.3238 21.8308ZM12.0672 1.36284L11.8896 2.19519L13.803 2.60527L13.9806 1.77292L12.0672 1.36284ZM23.4716 3.52595C23.5021 3.38485 23.4371 3.25593 23.3955 3.19198C23.3041 3.05088 23.1529 2.94329 23.0006 2.91081L15.4302 1.2867C15.2982 1.25828 15.1642 1.28365 15.0515 1.35776C14.9379 1.43084 14.8607 1.5425 14.8323 1.67343L14.4273 3.56959C14.4273 3.56959 11.2136 2.88645 11.1598 2.88645C11.0126 2.88645 10.8675 2.92908 10.7396 3.0113C10.565 3.12499 10.4442 3.29756 10.4016 3.49854L10.1052 4.87903L12.8347 5.46473C13.054 5.51244 13.194 5.72763 13.1463 5.94689C13.1057 6.13773 12.9372 6.26766 12.7505 6.26766C12.722 6.26766 12.6936 6.26563 12.6652 6.25853L9.93461 5.67283L9.71536 6.70008L12.4439 7.28476C12.6631 7.33247 12.8032 7.54867 12.7565 7.76693C12.7149 7.95776 12.5474 8.08871 12.3596 8.08871C12.3312 8.08871 12.3028 8.08566 12.2744 8.07856L9.54481 7.49388L9.33164 8.4856C9.28901 8.68658 9.32758 8.89366 9.44025 9.06826C9.55293 9.24183 9.72345 9.35958 9.92141 9.40425L20.9015 11.7592C21.3187 11.8496 21.7318 11.5816 21.8221 11.1634C21.8221 11.1634 23.3944 3.88429 23.4716 3.52595ZM21.2313 3.67314C21.7429 3.78277 21.5714 4.57859 21.0608 4.46692L16.3296 3.45187C16.1103 3.40517 15.9702 3.18897 16.0179 2.9697C16.0646 2.75044 16.2808 2.60935 16.5001 2.65808L21.2313 3.67314ZM12.4255 24.8251C12.5088 24.8251 12.5788 24.755 12.5788 24.6718V23.9115H7.07006V24.6718C7.07006 24.755 7.13908 24.8251 7.22333 24.8251H12.4255ZM11.4186 14.9616C11.4744 14.6987 11.3059 14.4389 11.043 14.382L10.8197 14.3343L10.4624 16.0021H11.1952L11.4186 14.9616ZM12.0926 10.7013L10.8298 10.4302L10.4258 10.3439L10.3284 10.7997L11.9941 11.157L12.0926 10.7013ZM7.73788 13.4459C7.25876 13.3099 6.92887 12.9901 6.83446 12.5689C6.74919 12.1872 6.88318 11.7873 7.18467 11.5254C7.5775 11.1823 8.17234 11.1234 8.81385 11.363C9.02397 11.4411 9.13057 11.6756 9.0524 11.8847C8.97424 12.0948 8.74077 12.2014 8.52964 12.1233C8.18148 11.9933 7.87797 11.9984 7.71758 12.1375C7.64043 12.2045 7.60592 12.2989 7.62724 12.3902C7.65465 12.512 7.77544 12.6115 7.95916 12.6643C8.17435 12.7252 8.30022 12.9495 8.23931 13.1657C8.18856 13.3444 8.02615 13.4611 7.84851 13.4611C7.81197 13.4611 7.77443 13.456 7.73788 13.4459ZM13.3615 13.9595C13.5401 14.0245 13.6965 14.0143 13.7898 13.9321C13.8589 13.8702 13.8873 13.7727 13.8639 13.6733C13.8152 13.4672 13.5726 13.2855 13.2123 13.1881C12.996 13.1282 12.8682 12.9059 12.927 12.6886C12.9869 12.4734 13.2112 12.3466 13.4264 12.4044C14.0883 12.5851 14.5359 12.9799 14.6547 13.4885C14.745 13.8773 14.6202 14.2803 14.3288 14.5391C14.1228 14.7218 13.8649 14.8152 13.5838 14.8152C13.4224 14.8152 13.2539 14.7838 13.0833 14.7228C12.8732 14.6457 12.7646 14.4132 12.8407 14.2021C12.9169 13.992 13.1503 13.8824 13.3615 13.9595Z" fill="#1953A2" stroke="#1953A2" stroke-width="0.8"/>
<path d="M16.2188 3.04688L21.3906 4.14062" stroke="#2392D1" stroke-width="1.8" stroke-linecap="round"/>
</svg>
