<svg width="29" height="29" viewBox="0 0 29 29" fill="none" xmlns="http://www.w3.org/2000/svg">
<path d="M7.7903 26.9185H20.8903C24.3403 26.9185 25.7153 24.806 25.8778 22.231L26.5278 11.906C26.7028 9.20602 24.5528 6.91852 21.8403 6.91852C21.0778 6.91852 20.3778 6.48102 20.0278 5.80602L19.1278 3.99352C18.5528 2.85602 17.0528 1.91852 15.7778 1.91852H12.9153C11.6278 1.91852 10.1278 2.85602 9.5528 3.99352L8.6528 5.80602C8.3028 6.48102 7.6028 6.91852 6.8403 6.91852C4.1278 6.91852 1.9778 9.20602 2.1528 11.906L2.8028 22.231C2.9528 24.806 4.3403 26.9185 7.7903 26.9185Z" stroke="#1953A2" stroke-width="3" stroke-linecap="round" stroke-linejoin="round"/>
<path d="M12.4651 9.41852H16.2151" stroke="#2392D1" stroke-width="3" stroke-linecap="round" stroke-linejoin="round"/>
<path d="M14.3401 21.9185C16.5776 21.9185 18.4026 20.0935 18.4026 17.856C18.4026 15.6185 16.5776 13.7935 14.3401 13.7935C12.1026 13.7935 10.2776 15.6185 10.2776 17.856C10.2776 20.0935 12.1026 21.9185 14.3401 21.9185Z" stroke="#2392D1" stroke-width="3" stroke-linecap="round" stroke-linejoin="round"/>
</svg>
