<svg width="28" height="18" viewBox="0 0 28 18" fill="none" xmlns="http://www.w3.org/2000/svg">
<path d="M20.3595 1.04028H3.1073C2.42672 1.04028 1.875 1.592 1.875 2.27258V15.8279C1.875 16.5085 2.42672 17.0602 3.1073 17.0602H20.3595C21.0401 17.0602 21.5918 16.5085 21.5918 15.8279V2.27258C21.5918 1.592 21.0401 1.04028 20.3595 1.04028Z" stroke="#1953A2" stroke-width="1.8"/>
<path d="M11.7334 12.7471C13.7751 12.7471 15.4303 11.092 15.4303 9.05023C15.4303 7.00849 13.7751 5.35333 11.7334 5.35333C9.69166 5.35333 8.0365 7.00849 8.0365 9.05023C8.0365 11.092 9.69166 12.7471 11.7334 12.7471Z" stroke="#1953A2" stroke-width="1.8" stroke-linecap="round" stroke-linejoin="round"/>
<path d="M21.5918 12.131L26.521 14.5956V3.50488L21.5918 5.96948" stroke="#1953A2" stroke-width="1.8" stroke-linecap="round" stroke-linejoin="round"/>
<circle cx="11.7334" cy="9.0502" r="3.72112" stroke="#2392D1" stroke-width="1.8"/>
</svg>
