<svg width="25" height="25" viewBox="0 0 25 25" fill="none" xmlns="http://www.w3.org/2000/svg">
<path d="M17.521 22.0503L13.354 18.0503M7.521 22.0503L11.688 18.0503M12.521 18.0503V23.0503M2.521 10.0503C2.521 6.54329 2.521 4.79029 3.429 3.61029C3.59566 3.39363 3.78033 3.19629 3.983 3.01829C5.091 2.05029 6.733 2.05029 10.021 2.05029H15.021C18.309 2.05029 19.952 2.05029 21.059 3.01829C21.2617 3.19696 21.4463 3.39429 21.613 3.61029C22.521 4.79029 22.521 6.54329 22.521 10.0503C22.521 13.5573 22.521 15.3103 21.613 16.4903C21.4488 16.7055 21.2632 16.9035 21.059 17.0813C19.951 18.0503 18.309 18.0503 15.021 18.0503H10.021C6.734 18.0503 5.09 18.0503 3.983 17.0823C3.77875 16.9042 3.59313 16.7059 3.429 16.4903C2.521 15.3103 2.521 13.5573 2.521 10.0503Z" stroke="#1953A2" stroke-width="1.5" stroke-linecap="round" stroke-linejoin="round"/>
<path d="M12.521 12.5503C14.1779 12.5503 15.521 11.2071 15.521 9.55029C15.521 7.89344 14.1779 6.55029 12.521 6.55029C10.8641 6.55029 9.521 7.89344 9.521 9.55029C9.521 11.2071 10.8641 12.5503 12.521 12.5503Z" stroke="#1953A2" stroke-width="1.5" stroke-linecap="round" stroke-linejoin="round"/>
<circle cx="12.5211" cy="9.55029" r="3.06985" stroke="#2392D1" stroke-width="1.8"/>
</svg>
