<svg width="23" height="24" viewBox="0 0 23 24" fill="none" xmlns="http://www.w3.org/2000/svg">
<path d="M5.99165 22.571H17.1731C20.1179 22.571 21.2915 20.7679 21.4302 18.57L21.985 9.75716C22.1344 7.45258 20.2993 5.5001 17.984 5.5001C17.3332 5.5001 16.7357 5.12667 16.437 4.55052L15.6688 3.00347C15.178 2.03256 13.8977 1.23236 12.8094 1.23236H10.3661C9.26713 1.23236 7.98681 2.03256 7.49603 3.00347L6.72783 4.55052C6.42909 5.12667 5.83161 5.5001 5.18078 5.5001C2.86553 5.5001 1.03041 7.45258 1.17978 9.75716L1.73458 18.57C1.86262 20.7679 3.04691 22.571 5.99165 22.571Z" stroke="#1953A2" stroke-width="2" stroke-linecap="round" stroke-linejoin="round"/>
<path d="M9.98181 7.63391H13.1826" stroke="#2392D1" stroke-width="2" stroke-linecap="round" stroke-linejoin="round"/>
<path d="M11.5822 18.3032C13.492 18.3032 15.0498 16.7455 15.0498 14.8357C15.0498 12.9259 13.492 11.3682 11.5822 11.3682C9.67241 11.3682 8.11469 12.9259 8.11469 14.8357C8.11469 16.7455 9.67241 18.3032 11.5822 18.3032Z" stroke="#2392D1" stroke-width="2" stroke-linecap="round" stroke-linejoin="round"/>
</svg>
