<svg width="27" height="28" viewBox="0 0 27 28" fill="none" xmlns="http://www.w3.org/2000/svg">
<g clip-path="url(#clip0_15_307)">
<path d="M22.9027 23.0503L15.5468 4.83654C15.146 3.89154 14.5285 3.12654 13.6943 2.54154C12.871 1.96779 11.9502 1.67529 10.9318 1.67529C10.0218 1.67529 9.18767 1.91154 8.42934 2.38404C7.29184 3.09279 7.06434 3.49779 6.62017 4.28529C6.17601 5.07279 5.93767 5.95029 5.93767 6.89529L5.97017 10.6753H2.72017V16.8065C3.39184 16.4915 4.10684 16.334 4.85434 16.334V12.959H10.271C10.8885 12.959 11.3977 13.184 11.8202 13.6228C12.2427 14.0503 12.4377 14.579 12.4377 15.1753V23.084H10.1735C10.0062 23.8955 9.65739 24.6548 9.15517 25.3003H14.6043V15.1753C14.6043 14.3653 14.3877 13.6228 14.0085 12.9253C13.6293 12.2278 13.0985 11.699 12.4377 11.3053C11.8093 10.9003 11.0835 10.6753 10.271 10.6753H8.10434V6.89529C8.10434 6.08529 8.37517 5.39904 8.92767 4.81404C9.48017 4.22904 10.1518 3.92529 10.9318 3.92529C11.506 3.92529 12.0368 4.10529 12.5027 4.44279C12.9685 4.78029 13.3152 5.20779 13.521 5.73654L20.5193 23.0503L17.8543 23.084V25.3003H25.4377V23.084L22.9027 23.0503ZM4.85434 20.8003C5.45017 20.8003 5.93767 21.3065 5.93767 21.9253C5.93767 22.544 5.45017 23.0503 4.85434 23.0503C4.25851 23.0503 3.77101 22.544 3.77101 21.9253C3.77101 21.3065 4.25851 20.8003 4.85434 20.8003ZM4.85434 18.5503C3.05601 18.5503 1.60434 20.0578 1.60434 21.9253C1.60434 23.7928 3.05601 25.3003 4.85434 25.3003C6.65267 25.3003 8.10434 23.7928 8.10434 21.9253C8.10434 20.0578 6.65267 18.5503 4.85434 18.5503Z" fill="#507CB8"/>
<circle cx="4.646" cy="22.125" r="4.125" fill="#2392D1"/>
</g>
<defs>
<clipPath id="clip0_15_307">
<rect width="26" height="27" fill="white" transform="translate(0.520996 0.550293)"/>
</clipPath>
</defs>
</svg>
