<svg width="16" height="30" viewBox="0 0 16 30" fill="none" xmlns="http://www.w3.org/2000/svg">
<path d="M13.633 24.2182H13.3552V2.77077C13.3552 2.255 13.1503 1.76035 12.7856 1.39564C12.4209 1.03094 11.9263 0.82605 11.4105 0.82605H3.63164C3.11586 0.82605 2.62122 1.03094 2.25651 1.39564C1.89181 1.76035 1.68692 2.255 1.68692 2.77077V24.2182H1.4091C1.04069 24.2182 0.687376 24.3646 0.426872 24.6251C0.166369 24.8856 0.0200195 25.2389 0.0200195 25.6073V27.8854C0.0200195 28.2538 0.166369 28.6071 0.426872 28.8676C0.687376 29.1281 1.04069 29.2745 1.4091 29.2745H13.633C14.0014 29.2745 14.3548 29.1281 14.6153 28.8676C14.8758 28.6071 15.0221 28.2538 15.0221 27.8854V25.6073C15.0221 25.2389 14.8758 24.8856 14.6153 24.6251C14.3548 24.3646 14.0014 24.2182 13.633 24.2182ZM6.68762 2.49295H8.35452V11.1053C8.35452 11.3263 8.26671 11.5383 8.11041 11.6946C7.9541 11.8509 7.74211 11.9387 7.52107 11.9387C7.30002 11.9387 7.08803 11.8509 6.93173 11.6946C6.77543 11.5383 6.68762 11.3263 6.68762 11.1053V2.49295ZM3.35382 2.77077C3.35382 2.69708 3.38309 2.62642 3.43519 2.57432C3.48729 2.52222 3.55795 2.49295 3.63164 2.49295H5.02072V11.1053C5.02072 11.7684 5.28415 12.4044 5.75305 12.8733C6.22196 13.3422 6.85793 13.6056 7.52107 13.6056C8.1842 13.6056 8.82018 13.3422 9.28908 12.8733C9.75799 12.4044 10.0214 11.7684 10.0214 11.1053V2.49295H11.4105C11.4842 2.49295 11.5548 2.52222 11.6069 2.57432C11.659 2.62642 11.6883 2.69708 11.6883 2.77077V24.2182H3.35382V2.77077ZM13.3552 27.6076H1.68692V25.8851H13.3552V27.6076Z" fill="#1953A2"/>
<path d="M8.35448 18.6619H6.68758C6.46653 18.6619 6.25454 18.7497 6.09824 18.906C5.94194 19.0623 5.85413 19.2743 5.85413 19.4953C5.85413 19.7164 5.94194 19.9284 6.09824 20.0847C6.25454 20.241 6.46653 20.3288 6.68758 20.3288H8.35448C8.57552 20.3288 8.78751 20.241 8.94381 20.0847C9.10012 19.9284 9.18793 19.7164 9.18793 19.4953C9.18793 19.2743 9.10012 19.0623 8.94381 18.906C8.78751 18.7497 8.57552 18.6619 8.35448 18.6619Z" fill="#2392D1"/>
</svg>
