<svg width="22" height="21" viewBox="0 0 22 21" fill="none" xmlns="http://www.w3.org/2000/svg">
<path d="M3.13725 9.62754V18.7049H19.0225V9.62754H3.13725ZM3.13725 7.35821H19.0225V2.81956H3.13725V7.35821ZM11.0799 17.5702C10.4558 17.5702 9.92178 17.3482 9.47775 16.9041C9.03372 16.4601 8.81132 15.9257 8.81057 15.3009C8.81057 14.7903 8.9524 14.2468 9.23607 13.6703C9.51973 13.0939 10.1343 12.1246 11.0799 10.7622C12.0254 12.1238 12.6401 13.0932 12.9237 13.6703C13.2074 14.2475 13.3492 14.791 13.3492 15.3009C13.3492 15.9249 13.1272 16.4594 12.6832 16.9041C12.2391 17.3489 11.7047 17.5709 11.0799 17.5702ZM16.7532 6.22355C17.0747 6.22355 17.3444 6.11462 17.5622 5.89677C17.7801 5.67891 17.8886 5.40962 17.8879 5.08889C17.8871 4.76816 17.7782 4.49886 17.5611 4.28101C17.344 4.06315 17.0747 3.95422 16.7532 3.95422C16.4317 3.95422 16.1624 4.06315 15.9453 4.28101C15.7282 4.49886 15.6193 4.76816 15.6185 5.08889C15.6178 5.40962 15.7267 5.67929 15.9453 5.8979C16.1639 6.11651 16.4332 6.22506 16.7532 6.22355ZM3.13725 20.9742C2.51318 20.9742 1.97913 20.7522 1.5351 20.3081C1.09107 19.8641 0.868676 19.3297 0.86792 18.7049V2.81956C0.86792 2.19549 1.09031 1.66145 1.5351 1.21741C1.97989 0.773383 2.51394 0.550988 3.13725 0.550232H19.0225C19.6466 0.550232 20.181 0.772626 20.6258 1.21741C21.0706 1.6622 21.2926 2.19625 21.2919 2.81956V18.7049C21.2919 19.3289 21.0699 19.8633 20.6258 20.3081C20.1818 20.7529 19.6474 20.9749 19.0225 20.9742H3.13725Z" fill="#1953A2"/>
<circle cx="16.75" cy="5.125" r="1.375" fill="#2392D1"/>
</svg>
