<svg width="23" height="22" viewBox="0 0 23 22" fill="none" xmlns="http://www.w3.org/2000/svg">
<path d="M2.5531 5.83733C2.5531 7.66883 4.04329 9.1737 5.88948 9.1737C7.73553 9.1737 9.22585 7.66896 9.22585 5.83733C9.22585 4.00574 7.73558 2.50095 5.88948 2.50095C4.04346 2.50095 2.5531 4.00566 2.5531 5.83733ZM5.88948 8.33961C4.96534 8.33961 4.15719 7.83565 3.72383 7.08847H8.05512C7.62176 7.83561 6.81361 8.33961 5.88948 8.33961ZM8.35635 5.42028C8.40352 5.70016 8.4036 5.97404 8.35635 6.25438H3.42264C3.37548 5.97454 3.37539 5.70062 3.42264 5.42028H8.35635ZM8.05512 4.58619H3.72383C4.15719 3.83901 4.96534 3.33505 5.88948 3.33505C6.81361 3.33505 7.62176 3.83901 8.05512 4.58619Z" fill="#2392D1" stroke="#2391D0" stroke-width="0.5"/>
<path d="M21.5824 0.862586L17.5152 2.48944L14.7707 2.0993C14.5426 2.06673 14.3315 2.22545 14.2991 2.4535C14.2667 2.68154 14.4253 2.89265 14.6533 2.92509L17.1497 3.27996V8.3947C14.7456 8.73651 6.50524 9.90808 6.50065 9.90879C4.70297 10.1857 2.90554 9.25474 2.13 7.64523C1.58463 6.51336 1.58463 5.16167 2.13 4.02947C2.90554 2.41996 4.70268 1.48928 6.50065 1.76591C6.50549 1.76666 9.02712 2.12515 13.0017 2.69034C13.2303 2.72287 13.4409 2.56422 13.4734 2.33618C13.5058 2.1081 13.3473 1.89699 13.1192 1.86454L6.62539 0.941116C4.48969 0.613276 2.33527 1.68208 1.37861 3.66739C0.724051 5.02634 0.724051 6.64874 1.37865 8.00727C1.84228 8.96948 2.59413 9.7393 3.55284 10.2335C3.63575 10.2762 3.71962 10.3162 3.80415 10.3542V12.8575C3.80415 13.0878 3.9909 13.2745 4.2212 13.2745C4.45149 13.2745 4.63824 13.0878 4.63824 12.8575V10.6433C5.03406 10.7425 5.44039 10.793 5.85068 10.7929C6.10779 10.7929 6.36665 10.7732 6.62514 10.7335L7.55753 10.601V15.4294C7.55753 16.2342 6.90273 16.889 6.09787 16.889C5.29301 16.889 4.6382 16.2342 4.6382 15.4294V14.5248C4.6382 14.2945 4.45145 14.1077 4.22116 14.1077C3.99086 14.1077 3.80411 14.2945 3.80411 14.5248V15.4294C3.80411 16.5517 4.61464 17.4877 5.68095 17.6845V17.8274C5.68095 19.7245 7.22444 21.268 9.12158 21.268C11.0187 21.268 12.5622 19.7245 12.5622 17.8274V17.5146C12.5622 16.1348 13.6847 15.0123 15.0645 15.0123C16.4443 15.0123 17.5668 16.1348 17.5668 17.5146C17.5668 17.7449 17.7535 17.9316 17.9838 17.9316C18.2141 17.9316 18.4009 17.7449 18.4009 17.5146C18.4009 15.6749 16.9042 14.1782 15.0645 14.1782C13.2248 14.1782 11.7281 15.6749 11.7281 17.5146V17.8274C11.7281 19.2647 10.5589 20.4339 9.12158 20.4339C7.68431 20.4339 6.51504 19.2647 6.51504 17.8274V17.6844C7.58122 17.4876 8.39162 16.5516 8.39162 15.4294V12.8917C9.57354 12.6925 10.477 11.6625 10.477 10.4248V10.1859L17.5347 9.18242L21.6174 10.4072C21.8841 10.4873 22.1543 10.2876 22.1543 10.0078V1.24981C22.1543 0.955254 21.8564 0.753195 21.5824 0.862586ZM9.64293 10.4248C9.64293 11.2007 9.11049 11.8546 8.39179 12.0402V10.4824L9.64293 10.3045V10.4248ZM21.3202 9.44725L17.9839 8.44633V3.20034L21.3202 1.86579V9.44725Z" fill="#1953A2" stroke="#1953A2" stroke-width="0.5"/>
</svg>
