<svg width="25" height="24" viewBox="0 0 25 24" fill="none" xmlns="http://www.w3.org/2000/svg">
<path d="M20.6959 0.529785H8.10231C6.02833 0.529785 4.34115 2.20948 4.34115 4.27395V4.83241H3.84433C3.34981 4.83241 2.94745 5.23361 2.94745 5.7264V6.92136C2.94745 7.41415 3.34981 7.81535 3.84433 7.81535H4.34115V8.17393C4.34115 8.3332 4.47018 8.46194 4.62916 8.46194H7.71003V10.0426H1.3222C1.16322 10.0426 1.03419 10.1713 1.03419 10.3306V13.6764C1.03419 16.204 2.40196 18.5093 4.61591 19.7348V20.5423H2.43249C1.64276 20.5423 1.00049 21.1846 1.00049 21.9743V23.2828C1.00049 23.4421 1.12952 23.5708 1.2885 23.5708H23.7535C23.9125 23.5708 24.0415 23.4421 24.0415 23.2828V21.9743C24.0415 21.2054 23.4306 20.5804 22.6688 20.5484V11.7721C22.6688 11.6128 22.5398 11.4841 22.3808 11.4841H21.9909V8.44783C23.1953 8.32888 24.0415 7.46513 24.0415 6.30674V3.86094C24.0415 2.024 22.5407 0.529785 20.6959 0.529785ZM4.34115 7.23933H3.84433C3.66749 7.23933 3.52348 7.09676 3.52348 6.92136V5.7264C3.52348 5.55129 3.66749 5.40843 3.84433 5.40843H4.34115V7.23933ZM7.99804 12.6905C8.43064 12.6905 9.03403 13.7746 9.03403 15.5399C9.03403 17.3054 8.43064 18.3895 7.99804 18.3895C7.56574 18.3895 6.96235 17.3054 6.96235 15.5399C6.96235 13.7743 7.56545 12.6905 7.99804 12.6905ZM1.61021 13.6764V10.6186H7.71003V12.0929C6.20949 12.2626 5.03267 13.7418 5.03267 15.5367C5.03267 17.4448 6.363 18.9974 7.99804 18.9974C9.63309 18.9974 10.9634 17.4448 10.9634 15.5367C10.9634 13.7418 9.78632 12.2626 8.28606 12.0926V10.6183H14.3859V13.6761C14.3859 16.0465 13.0728 18.2045 10.9591 19.3071C10.8638 19.3569 10.8042 19.4551 10.8042 19.5625V20.5421H5.19194V19.5625C5.19194 19.4551 5.13232 19.3569 5.03699 19.3071C2.92326 18.2048 1.61021 16.047 1.61021 13.6764ZM6.90792 18.1006C6.13748 17.621 5.60869 16.653 5.60869 15.5367C5.60869 14.418 6.13979 13.4486 6.91224 12.9699C6.58621 13.5877 6.38604 14.4932 6.38604 15.5393C6.38633 16.581 6.58448 17.4828 6.90792 18.1006ZM9.08385 12.9702C9.85659 13.4486 10.3877 14.4183 10.3877 15.537C10.3877 16.6533 9.85889 17.6213 9.08846 18.1009C9.41161 17.4831 9.61005 16.5813 9.61005 15.5399C9.61005 14.4935 9.40988 13.588 9.08385 12.9702ZM13.6909 20.5346C13.6886 20.5369 13.6877 20.54 13.6854 20.5423H11.3805V19.7348C13.5944 18.5093 14.9622 16.204 14.9622 13.6764V10.3306C14.9622 10.1713 14.8332 10.0426 14.6742 10.0426H8.28606V8.46194H16.8769V11.4841H16.2879C16.2078 11.4841 16.1315 11.5175 16.0768 11.5759C16.0224 11.6347 15.9947 11.7136 16.0008 11.7934C16.0051 11.8544 16.4195 17.9232 13.6909 20.5346ZM22.6095 21.1184C23.0816 21.1184 23.4655 21.5023 23.4655 21.9743V22.9948H1.57651V21.9743C1.57651 21.5023 1.96043 21.1184 2.43249 21.1184H22.6095ZM22.0931 12.0601V20.5423H14.4703C16.6727 17.952 16.6436 13.3112 16.5918 12.0601H22.0931ZM17.4529 11.4841V9.77096H21.4148V11.4841H17.4529ZM23.4655 6.30674C23.4655 7.23674 22.7405 7.88592 21.7026 7.88592C21.5436 7.88592 21.4145 8.01466 21.4145 8.17393V9.19493H17.4529V8.17393C17.4529 8.01466 17.3239 7.88592 17.1649 7.88592H4.91717V5.40843H23.4655V6.30674ZM23.4655 4.83241H4.91717V4.27395C4.91717 2.52715 6.346 1.10581 8.10231 1.10581H20.6959C22.2233 1.10581 23.4655 2.34167 23.4655 3.86065V4.83241Z" fill="black" stroke="#1953A2" stroke-width="0.8"/>
<path d="M20.6956 1.93613C20.1193 1.93613 19.6504 2.40328 19.6504 2.97758C19.6504 3.55188 20.1193 4.01903 20.6956 4.01903C21.2719 4.01903 21.7408 3.55188 21.7408 2.97758C21.7408 2.40328 21.2719 1.93613 20.6956 1.93613ZM20.6956 3.4433C20.437 3.4433 20.2264 3.23449 20.2264 2.97787C20.2264 2.72125 20.437 2.51244 20.6956 2.51244C20.9542 2.51244 21.1648 2.72125 21.1648 2.97787C21.1648 3.23449 20.9542 3.4433 20.6956 3.4433Z" fill="black" stroke="#2392D1" stroke-width="0.6"/>
<path d="M17.743 1.93613C17.1666 1.93613 16.6978 2.40328 16.6978 2.97758C16.6978 3.55188 17.1666 4.01903 17.743 4.01903C18.3193 4.01903 18.7881 3.55188 18.7881 2.97758C18.7881 2.40328 18.3193 1.93613 17.743 1.93613ZM17.743 3.4433C17.4843 3.4433 17.2738 3.23449 17.2738 2.97787C17.2738 2.72125 17.4843 2.51244 17.743 2.51244C18.0016 2.51244 18.2121 2.72125 18.2121 2.97787C18.2121 3.23449 18.0013 3.4433 17.743 3.4433Z" fill="black" stroke="#2392D1" stroke-width="0.6"/>
</svg>
