<svg width="21" height="30" viewBox="0 0 21 30" fill="none" xmlns="http://www.w3.org/2000/svg">
<path d="M1.48096 13.0414H19.561M5.49875 7.01468V8.01912M4.4943 26.0992V28.1081M16.5477 26.0992V28.1081M17.5521 1.99243H3.48985C2.95706 1.99243 2.44609 2.20408 2.06935 2.58082C1.69261 2.95757 1.48096 3.46854 1.48096 4.00133V24.0903C1.48096 24.6231 1.69261 25.1341 2.06935 25.5108C2.44609 25.8876 2.95706 26.0992 3.48985 26.0992H17.5521C18.0849 26.0992 18.5959 25.8876 18.9726 25.5108C19.3494 25.1341 19.561 24.6231 19.561 24.0903V4.00133C19.561 3.46854 19.3494 2.95757 18.9726 2.58082C18.5959 2.20408 18.0849 1.99243 17.5521 1.99243Z" stroke="#1953A2" stroke-width="2.5" stroke-linecap="round" stroke-linejoin="round"/>
<line x1="5.5125" y1="8.8875" x2="5.5125" y2="6.175" stroke="#2392D1" stroke-width="2.6" stroke-linecap="round"/>
</svg>
