<svg width="31" height="26" viewBox="0 0 31 26" fill="none" xmlns="http://www.w3.org/2000/svg">
<path d="M10.0051 20.7536H7.2361C6.81013 20.7536 6.46478 20.4082 6.46478 19.9823V19.1814H5.6639C5.23793 19.1814 4.89258 18.836 4.89258 18.4101V15.6411C4.89258 15.2152 5.23788 14.8698 5.6639 14.8698H6.46483V14.069C6.46483 13.6431 6.81013 13.2977 7.23615 13.2977H10.005C10.431 13.2977 10.7764 13.6431 10.7764 14.069V14.8698H11.5773C12.0033 14.8698 12.3486 15.2152 12.3486 15.6411V18.4101C12.3486 18.836 12.0033 19.1814 11.5773 19.1814H10.7763V19.9823C10.7764 20.4082 10.4311 20.7536 10.0051 20.7536ZM8.00742 19.211H9.23372V18.4101C9.23372 17.9842 9.57902 17.6388 10.005 17.6388H10.806V16.4125H10.005C9.57907 16.4125 9.23372 16.067 9.23372 15.6411V14.8403H8.00742V15.6411C8.00742 16.067 7.66212 16.4125 7.2361 16.4125H6.43517V17.6388H7.2361C7.66206 17.6388 8.00742 17.9842 8.00742 18.4101V19.211Z" fill="#2392D1"/>
<path d="M21.9643 20.5994C19.9938 20.5994 18.3906 18.9962 18.3906 17.0257C18.3906 15.0551 19.9938 13.452 21.9643 13.452C23.9349 13.452 25.538 15.0551 25.538 17.0257C25.538 18.9962 23.9349 20.5994 21.9643 20.5994ZM21.9643 14.9947C20.8443 14.9947 19.9333 15.9058 19.9333 17.0257C19.9333 18.1456 20.8444 19.0568 21.9643 19.0568C23.0842 19.0568 23.9954 18.1456 23.9954 17.0257C23.9954 15.9058 23.0842 14.9947 21.9643 14.9947Z" fill="#2392D1"/>
<path d="M21.6309 25.1481H21.6292L21.6151 25.1481L21.6134 25.1481L21.6151 24.6481L21.6309 25.1481ZM21.6309 25.1481C26.11 25.1481 29.7532 21.5049 29.7532 17.0257C29.7532 12.5466 26.11 8.90338 21.6308 8.90338H8.7996C4.32051 8.90338 0.677246 12.5466 0.677246 17.0257C0.677246 21.5049 4.3205 25.1481 8.79954 25.1481H8.80925C9.80373 25.1481 10.7954 24.8716 11.6788 24.354C12.2847 23.999 12.4879 23.2201 12.133 22.6143L12.1329 22.6143C11.7779 22.0085 10.999 21.8054 10.3933 22.1602L10.3933 22.1602M21.6309 25.1481L10.3933 22.1602M10.3933 22.1602C9.89151 22.4543 9.34306 22.6056 8.80925 22.6056H8.79954C5.72331 22.6056 3.21983 20.102 3.21983 17.0257C3.21983 13.9495 5.72335 11.446 8.7996 11.446H21.6308C24.707 11.446 27.2106 13.9494 27.2106 17.0257C27.2106 20.1023 24.7067 22.6055 21.6368 22.6055L10.3933 22.1602Z" fill="#1953A2" stroke="#1953A2"/>
<path d="M15.2926 7.84675C14.8666 7.84675 14.5212 7.50134 14.5212 7.07543V4.01377C14.5212 3.30672 13.946 2.73155 13.2389 2.73155H13.103C12.3959 2.73155 11.8207 3.30672 11.8207 4.01377C11.8207 5.57144 10.5534 6.83875 8.99575 6.83875H8.86008C7.30241 6.8387 6.03516 5.57133 6.03516 4.01383V1.96023C6.03516 1.53431 6.38046 1.1889 6.80648 1.1889C7.2325 1.1889 7.5778 1.53431 7.5778 1.96023V4.01388C7.5778 4.72088 8.15303 5.29611 8.86008 5.29617H8.99575C9.7028 5.29617 10.278 4.72094 10.278 4.01388C10.278 2.45622 11.5453 1.18896 13.103 1.18896H13.2389C14.7966 1.18896 16.0639 2.45622 16.0639 4.01377V7.07537C16.0638 7.50139 15.7185 7.84675 15.2926 7.84675Z" fill="#1953A2" stroke="#1953A2"/>
</svg>
