<svg width="25" height="26" viewBox="0 0 25 26" fill="none" xmlns="http://www.w3.org/2000/svg">
<path d="M21.983 15.8896H13.9402V10.4867C15.1487 10.1442 16.1925 9.37605 16.879 8.32415C17.5655 7.27225 17.8484 6.00755 17.6755 4.76341C17.5026 3.51927 16.8855 2.37966 15.9381 1.55486C14.9907 0.73007 13.777 0.275757 12.5209 0.275757C11.2648 0.275757 10.0511 0.73007 9.10373 1.55486C8.15637 2.37966 7.53928 3.51927 7.36635 4.76341C7.19342 6.00755 7.4763 7.27225 8.16281 8.32415C8.84933 9.37605 9.89313 10.1442 11.1016 10.4867V15.8896H3.05887C2.4315 15.8896 1.82982 16.1388 1.3862 16.5824C0.942582 17.026 0.693359 17.6277 0.693359 18.2551V23.4592C0.693359 24.0866 0.942582 24.6882 1.3862 25.1319C1.82982 25.5755 2.4315 25.8247 3.05887 25.8247H21.983C22.6103 25.8247 23.212 25.5755 23.6556 25.1319C24.0993 24.6882 24.3485 24.0866 24.3485 23.4592V18.2551C24.3485 17.6277 24.0993 17.026 23.6556 16.5824C23.212 16.1388 22.6103 15.8896 21.983 15.8896ZM10.1554 5.4813C10.1554 5.01345 10.2941 4.5561 10.5541 4.1671C10.814 3.77809 11.1834 3.4749 11.6157 3.29586C12.0479 3.11682 12.5235 3.06997 12.9824 3.16125C13.4413 3.25252 13.8628 3.47781 14.1936 3.80863C14.5244 4.13946 14.7497 4.56095 14.841 5.01982C14.9323 5.47868 14.8854 5.95431 14.7064 6.38655C14.5273 6.81879 14.2241 7.18823 13.8351 7.44816C13.4461 7.70808 12.9888 7.84682 12.5209 7.84682C11.8935 7.84682 11.2919 7.59759 10.8482 7.15397C10.4046 6.71035 10.1554 6.10868 10.1554 5.4813ZM21.5099 22.9861H3.53197V18.7282H21.5099V22.9861ZM17.725 11.1585H21.5099C21.8863 11.1585 22.2473 11.3081 22.5135 11.5742C22.7796 11.8404 22.9292 12.2014 22.9292 12.5778C22.9292 12.9543 22.7796 13.3153 22.5135 13.5814C22.2473 13.8476 21.8863 13.9971 21.5099 13.9971H17.725C17.3486 13.9971 16.9876 13.8476 16.7214 13.5814C16.4553 13.3153 16.3057 12.9543 16.3057 12.5778C16.3057 12.2014 16.4553 11.8404 16.7214 11.5742C16.9876 11.3081 17.3486 11.1585 17.725 11.1585Z" fill="#1953A2"/>
<circle cx="12.521" cy="5.46875" r="3.53125" fill="#2392D1"/>
</svg>
