<svg width="30" height="31" viewBox="0 0 30 31" fill="none" xmlns="http://www.w3.org/2000/svg">
<path d="M24.1315 11.3005C23.8147 11.3005 23.5093 11.1268 23.356 10.8249C21.7871 7.73593 18.6674 5.81705 15.2145 5.81705C11.7616 5.81705 8.64199 7.73593 7.07296 10.8248C6.85564 11.2527 6.33245 11.4232 5.90466 11.206C5.47675 10.9887 5.30601 10.4655 5.52333 10.0376C7.39031 6.36232 11.1037 4.07904 15.2145 4.07904C19.3253 4.07904 23.0388 6.36226 24.9057 10.0378C25.123 10.4657 24.9523 10.9888 24.5243 11.2061C24.3983 11.2701 24.2638 11.3005 24.1315 11.3005Z" fill="#1953A2"/>
<path d="M25.0379 28.0913L23.0359 27.7693L24.4801 18.789L26.4821 19.111C28.03 19.3599 29.0831 20.8166 28.8341 22.3645L28.2914 25.7392C28.0424 27.2872 26.5857 28.3403 25.0379 28.0913Z" fill="#8BC4E5"/>
<path d="M29.036 19.7416C28.4557 18.939 27.5977 18.4104 26.6198 18.2532L25.4759 18.0692L25.584 17.3971C25.6602 16.9232 25.3378 16.4774 24.864 16.4011L20.2308 15.656C20.0031 15.6193 19.7705 15.6747 19.5838 15.8098C19.397 15.9449 19.2715 16.1485 19.2349 16.376L17.2985 28.4165C17.2223 28.8903 17.5447 29.3362 18.0185 29.4124L22.6516 30.1575C22.6976 30.1649 22.7437 30.1685 22.7896 30.1685C22.9713 30.1685 23.1497 30.1115 23.2987 30.0038C23.4854 29.8687 23.611 29.665 23.6476 29.4375L23.7557 28.7655L24.8997 28.9494C25.0955 28.9809 25.2947 28.9969 25.4917 28.9969C27.3203 28.9969 28.8584 27.6849 29.149 25.8774L29.6919 22.5026C29.8492 21.5247 29.6162 20.5442 29.036 19.7416ZM19.1525 27.8344L20.8128 17.5099L23.73 17.979L23.1549 21.5554L22.1778 27.6314V27.6317L22.0697 28.3035L19.1525 27.8344ZM27.9759 22.2266L27.4331 25.6015C27.2787 26.5618 26.4623 27.2588 25.4917 27.2588C25.3867 27.2588 25.2804 27.2502 25.1756 27.2335L24.0316 27.0495L24.4535 24.4257L25.1998 19.7851L26.3438 19.9691C26.8633 20.0526 27.3191 20.3335 27.6274 20.7599C27.9357 21.1862 28.0594 21.7071 27.9759 22.2266Z" fill="#1953A2"/>
<path d="M5.39101 28.0913L7.39298 27.7693L5.94882 18.7891L3.94685 19.1111C2.39897 19.3601 1.34587 20.8167 1.59478 22.3646L2.13747 25.7393C2.38649 27.2872 3.84313 28.3403 5.39101 28.0913Z" fill="#8BC4E5"/>
<path d="M15.2144 0.168518C7.06841 0.168518 0.441162 6.79577 0.441162 14.9418C0.441162 16.6427 0.727568 18.3044 1.29142 19.8893C0.785928 20.663 0.58917 21.5839 0.736885 22.5026L1.2797 25.8773C1.57038 27.6847 3.10847 28.9967 4.93694 28.9968C4.93694 28.9968 4.937 28.9968 4.93712 28.9968C5.13411 28.9968 5.33333 28.9808 5.52915 28.9493L6.67313 28.7653L6.78124 29.4374C6.8178 29.6649 6.94331 29.8686 7.13017 30.0036C7.27923 30.1114 7.45759 30.1684 7.63923 30.1684C7.68511 30.1684 7.73134 30.1648 7.77722 30.1574L12.4103 29.4123C12.8842 29.3361 13.2065 28.8902 13.1303 28.4163L12.0325 21.59C11.9563 21.1161 11.5108 20.7935 11.0366 20.87C10.5627 20.9462 10.2404 21.3921 10.3166 21.866L11.2764 27.8343L8.35917 28.3034L8.25112 27.6316V27.6314L7.27401 21.5554L6.69892 17.9789L9.61612 17.5098L9.75763 18.3899C9.83386 18.8637 10.2794 19.1862 10.7536 19.1099C11.2275 19.0337 11.5498 18.5878 11.4736 18.1139L11.1941 16.3759C11.1575 16.1483 11.032 15.9447 10.8452 15.8097C10.6584 15.6746 10.4255 15.6192 10.1981 15.6559L5.56501 16.401C5.09116 16.4772 4.76884 16.9231 4.84501 17.397L4.95312 18.069L3.80913 18.253C3.41808 18.3158 3.04677 18.439 2.70417 18.6145C2.35595 17.4279 2.17935 16.1971 2.17935 14.9418C2.17935 7.75412 8.02694 1.90658 15.2145 1.90658C22.4021 1.90658 28.2497 7.75418 28.2497 14.9418C28.2497 15.4217 28.6388 15.8108 29.1187 15.8108C29.5986 15.8108 29.9877 15.4217 29.9877 14.9418C29.9876 6.79577 23.3604 0.168518 15.2144 0.168518ZM4.08493 19.9691L5.22892 19.7851L5.97522 24.4256L6.39716 27.0495L5.25317 27.2334C5.14829 27.2503 5.04194 27.2588 4.937 27.2588C3.96651 27.2588 3.15007 26.5617 2.99562 25.6014L2.4528 22.2267C2.36931 21.7072 2.49306 21.1863 2.80126 20.7598C3.10946 20.3334 3.56544 20.0526 4.08493 19.9691Z" fill="#1953A2"/>
</svg>
