<svg width="33" height="24" viewBox="0 0 33 24" fill="none" xmlns="http://www.w3.org/2000/svg">
<path d="M26.166 3.36938C26.166 3.09409 25.9429 2.87091 25.6676 2.87091H7.37432C7.09897 2.87091 6.87585 3.09409 6.87585 3.36938V15.1433C6.87585 15.4186 7.09897 15.6418 7.37432 15.6418H25.6676C25.9429 15.6418 26.166 15.4186 26.166 15.1433V3.36938ZM25.1691 14.6449H7.87279V3.86784H25.1691V14.6449Z" fill="#507CB8"/>
<path d="M8.70353 14.1464H24.3383C24.5219 14.1464 24.6706 13.9976 24.6706 13.8141V4.69858C24.6706 4.51508 24.5219 4.36627 24.3383 4.36627H8.70353C8.51996 4.36627 8.37122 4.51508 8.37122 4.69858V13.8141C8.37122 13.9976 8.51996 14.1464 8.70353 14.1464ZM9.03584 5.03089H24.006V13.4818H9.03584V5.03089Z" fill="#507CB8"/>
<path d="M32.0225 22.4151H31.4244V1.187C31.4244 0.911718 31.2013 0.688538 30.9259 0.688538H27.7359C27.4605 0.688538 27.2374 0.911718 27.2374 1.187V22.4151H26.6393C26.364 22.4151 26.1409 22.6383 26.1409 22.9136C26.1409 23.1888 26.364 23.412 26.6393 23.412H27.7359H30.9259H32.0225C32.2979 23.412 32.521 23.1888 32.521 22.9136C32.521 22.6383 32.2978 22.4151 32.0225 22.4151ZM30.4275 6.4972L28.2344 8.69032V3.01465H30.4275V6.4972ZM28.2343 9.63016L30.4274 7.43704V8.49272L28.2343 10.6858V9.63016ZM28.2343 11.6258L30.4274 9.43263V15.3095H28.2343V11.6258ZM30.4275 1.68547V2.35003H28.2344V1.68547H30.4275ZM28.2343 22.4151V15.9741H30.4274V22.4151H28.2343Z" fill="#507CB8"/>
<path d="M6.40263 22.4151H5.80447V1.187C5.80447 0.911718 5.58136 0.688538 5.30601 0.688538H2.11602C1.84067 0.688538 1.61756 0.911718 1.61756 1.187V22.4151H1.01946C0.74411 22.4151 0.520996 22.6383 0.520996 22.9136C0.520996 23.1888 0.74411 23.412 1.01946 23.412H2.11602H5.30601H6.40263C6.67798 23.412 6.9011 23.1888 6.9011 22.9136C6.9011 22.6383 6.67798 22.4151 6.40263 22.4151ZM4.80754 6.4972L2.61449 8.69025V3.01458H4.80754V6.4972ZM2.61449 9.63016L4.80754 7.43711V8.49279L2.61449 10.6858V9.63016ZM2.61449 11.6258L4.80754 9.4327V15.3096H2.61449V11.6258ZM4.80754 1.68547V2.35003H2.61449V1.68547H4.80754ZM2.61449 22.4151V15.9741H4.80754V22.4151H2.61449Z" fill="#507CB8"/>
<path d="M21.5552 16.6331H11.4867C11.2114 16.6331 10.9883 16.8563 10.9883 17.1316V22.9135C10.9883 23.1888 11.2114 23.412 11.4867 23.412H21.5552C21.8306 23.412 22.0537 23.1888 22.0537 22.9135V17.1316C22.0537 16.8563 21.8306 16.6331 21.5552 16.6331ZM21.0568 22.4151H11.9852V17.6301H21.0568V22.4151Z" fill="#507CB8"/>
<path d="M14.8213 21.9499C15.8839 21.9499 16.7485 21.0853 16.7485 20.0226C16.7485 18.9598 15.8839 18.0952 14.8213 18.0952C13.7585 18.0952 12.8939 18.9598 12.8939 20.0226C12.8939 21.0853 13.7585 21.9499 14.8213 21.9499ZM14.8213 18.7598C15.5175 18.7598 16.0839 19.3263 16.0839 20.0226C16.0839 20.7188 15.5175 21.2853 14.8213 21.2853C14.1249 21.2853 13.5585 20.7188 13.5585 20.0226C13.5585 19.3263 14.125 18.7598 14.8213 18.7598Z" fill="#507CB8"/>
<path d="M18.8406 21.3301C19.5616 21.3301 20.1481 20.7436 20.1481 20.0227C20.1481 19.3017 19.5616 18.7151 18.8406 18.7151C18.1196 18.7151 17.5331 19.3017 17.5331 20.0227C17.5331 20.7436 18.1196 21.3301 18.8406 21.3301ZM18.8406 19.3798C19.1951 19.3798 19.4835 19.6681 19.4835 20.0227C19.4835 20.3772 19.1951 20.6655 18.8406 20.6655C18.4861 20.6655 18.1977 20.3771 18.1977 20.0227C18.1977 19.6682 18.4861 19.3798 18.8406 19.3798Z" fill="#507CB8"/>
<path d="M14.8211 20.5209C14.952 20.5209 15.081 20.4677 15.174 20.3753C15.2665 20.2823 15.3196 20.154 15.3196 20.0224C15.3196 19.8915 15.2664 19.7632 15.174 19.6701C15.081 19.5778 14.9527 19.5239 14.8211 19.5239C14.6902 19.5239 14.5612 19.5778 14.4688 19.6701C14.3758 19.7632 14.3226 19.8915 14.3226 20.0224C14.3226 20.154 14.3758 20.2823 14.4688 20.3753C14.5619 20.4677 14.6902 20.5209 14.8211 20.5209Z" fill="#507CB8"/>
<circle cx="18.7836" cy="19.9656" r="1.3645" fill="#2392D1"/>
<circle cx="14.8212" cy="20.0227" r="0.715088" fill="#2392D1"/>
</svg>
