<svg width="33" height="29" viewBox="0 0 33 29" fill="none" xmlns="http://www.w3.org/2000/svg">
<path d="M27.3672 19.2221H5.06321M27.3672 19.2221V7.91852C27.3672 5.09009 27.3672 3.67587 26.5129 2.7972C25.6586 1.91852 24.2837 1.91852 21.5339 1.91852H10.8965C8.14668 1.91852 6.77175 1.91852 5.91748 2.7972C5.06321 3.67587 5.06321 5.09009 5.06321 7.91852V19.2221M27.3672 19.2221L29.9105 21.9222C29.9754 21.9912 30.0079 22.0257 30.0383 22.0599C30.5065 22.5888 30.7756 23.2722 30.797 23.9871C30.7985 24.0335 30.7985 24.0815 30.7985 24.1775C30.7985 24.4013 30.7985 24.5132 30.7927 24.6077C30.7001 26.1156 29.5318 27.3173 28.0657 27.4125C27.9739 27.4185 27.8651 27.4185 27.6475 27.4185H4.78283C4.56524 27.4185 4.45645 27.4185 4.36458 27.4125C2.89862 27.3173 1.73026 26.1156 1.63764 24.6077C1.63184 24.5132 1.63184 24.4013 1.63184 24.1775C1.63184 24.0815 1.63184 24.0335 1.63324 23.9871C1.65472 23.2722 1.92382 22.5888 2.39202 22.0599C2.42237 22.0257 2.45489 21.9912 2.51979 21.9222L5.06321 19.2221" stroke="#1953A2" stroke-width="3" stroke-linecap="round"/>
<path d="M12.5693 23.449H19.861" stroke="#2392D1" stroke-width="3" stroke-linecap="round"/>
<path d="M17.7625 6.50998C17.7625 7.38891 17.0697 8.10144 16.2152 8.10144C15.3607 8.10144 14.668 7.38891 14.668 6.50998C14.668 5.63105 15.3607 4.91852 16.2152 4.91852C17.0697 4.91852 17.7625 5.63105 17.7625 6.50998Z" fill="#2392D1"/>
</svg>
