<svg width="23" height="29" viewBox="0 0 23 29" fill="none" xmlns="http://www.w3.org/2000/svg">
<path d="M20.7948 8.28218V20.5549C20.7948 25.464 19.613 26.6913 14.8857 26.6913H7.79483C3.06756 26.6913 1.88574 25.464 1.88574 20.5549V8.28218C1.88574 3.37309 3.06756 2.14581 7.79483 2.14581H14.8857C19.613 2.14581 20.7948 3.37309 20.7948 8.28218Z" stroke="#1953A2" stroke-width="3" stroke-linecap="round" stroke-linejoin="round"/>
<path d="M13.7038 6.44122H8.97656" stroke="#2392D1" stroke-width="3" stroke-linecap="round" stroke-linejoin="round"/>
<path d="M11.3406 23.1321C12.3523 23.1321 13.1724 22.2804 13.1724 21.2298C13.1724 20.1793 12.3523 19.3276 11.3406 19.3276C10.3289 19.3276 9.50879 20.1793 9.50879 21.2298C9.50879 22.2804 10.3289 23.1321 11.3406 23.1321Z" stroke="#2392D1" stroke-width="3" stroke-linecap="round" stroke-linejoin="round"/>
</svg>
