<svg width="19" height="28" viewBox="0 0 19 28" fill="none" xmlns="http://www.w3.org/2000/svg">
<path d="M9.48759 27.4418H9.52107C14.6889 27.4418 18.8952 23.2369 18.8952 18.0677V10.0328C18.8952 4.88909 14.7076 0.693509 9.54652 0.658691H9.46617C4.3238 0.688153 0.146973 4.88641 0.146973 10.0328V18.0677C0.146973 23.2369 4.3372 27.4418 9.48759 27.4418ZM2.82529 10.0328C2.82775 8.26119 3.53123 6.56256 4.78206 5.30796C6.03289 4.05337 7.7294 3.34479 9.50098 3.33701C13.2038 3.34504 16.2169 6.34877 16.2169 10.0328V18.0677C16.2169 21.7598 13.2131 24.7635 9.52107 24.7635H9.48759C5.75268 24.7635 2.82529 21.8227 2.82529 18.0677V10.0328Z" fill="#1953A2"/>
<path d="M8.15663 5.864H10.8854V14.0502H8.15663V5.864Z" fill="#2392D1"/>
</svg>
