<svg width="30" height="26" viewBox="0 0 30 26" fill="none" xmlns="http://www.w3.org/2000/svg">
<path d="M26.5109 5.61273H24.5625V1.36273C24.5625 1.08094 24.4506 0.810689 24.2513 0.611431C24.052 0.412174 23.7818 0.300232 23.5 0.300232H6.5C6.21821 0.300232 5.94796 0.412174 5.7487 0.611431C5.54944 0.810689 5.4375 1.08094 5.4375 1.36273V5.61273H3.48914C1.63375 5.61273 0.125 7.04312 0.125 8.80023V19.4252C0.125 19.707 0.236942 19.9773 0.436199 20.1765C0.635456 20.3758 0.905707 20.4877 1.1875 20.4877H5.4375V24.7377C5.4375 25.0195 5.54944 25.2898 5.7487 25.489C5.94796 25.6883 6.21821 25.8002 6.5 25.8002H23.5C23.7818 25.8002 24.052 25.6883 24.2513 25.489C24.4506 25.2898 24.5625 25.0195 24.5625 24.7377V20.4877H28.8125C29.0943 20.4877 29.3645 20.3758 29.5638 20.1765C29.7631 19.9773 29.875 19.707 29.875 19.4252V8.80023C29.875 7.04312 28.3662 5.61273 26.5109 5.61273ZM7.5625 2.42523H22.4375V5.61273H7.5625V2.42523ZM22.4375 23.6752H7.5625V17.3002H22.4375V23.6752ZM27.75 18.3627H24.5625V16.2377C24.5625 15.9559 24.4506 15.6857 24.2513 15.4864C24.052 15.2872 23.7818 15.1752 23.5 15.1752H6.5C6.21821 15.1752 5.94796 15.2872 5.7487 15.4864C5.54944 15.6857 5.4375 15.9559 5.4375 16.2377V18.3627H2.25V8.80023C2.25 8.21453 2.80648 7.73773 3.48914 7.73773H26.5109C27.1935 7.73773 27.75 8.21453 27.75 8.80023V18.3627ZM24.5625 11.4565C24.5625 11.7717 24.469 12.0798 24.2939 12.3419C24.1188 12.604 23.8699 12.8083 23.5787 12.9289C23.2874 13.0495 22.967 13.0811 22.6578 13.0196C22.3487 12.9581 22.0647 12.8063 21.8418 12.5834C21.6189 12.3605 21.4671 12.0766 21.4056 11.7674C21.3441 11.4583 21.3757 11.1378 21.4963 10.8466C21.6169 10.5554 21.8212 10.3065 22.0833 10.1313C22.3454 9.9562 22.6535 9.86273 22.9688 9.86273C23.3914 9.86273 23.7968 10.0306 24.0957 10.3295C24.3946 10.6284 24.5625 11.0338 24.5625 11.4565Z" fill="#1953A2"/>
<mask id="path-2-inside-1_15_278" fill="white">
<path d="M23.0293 14.1895C21.5463 14.1895 20.3398 12.983 20.3398 11.5C20.3398 10.017 21.5463 8.81055 23.0293 8.81055C24.5122 8.81055 25.7188 10.017 25.7188 11.5C25.7188 12.983 24.5122 14.1895 23.0293 14.1895ZM23.0293 9.97153C22.1864 9.97153 21.5008 10.6572 21.5008 11.5C21.5008 12.3428 22.1865 13.0286 23.0293 13.0286C23.8721 13.0286 24.5578 12.3428 24.5578 11.5C24.5578 10.6572 23.8721 9.97153 23.0293 9.97153Z"/>
</mask>
<path d="M23.0293 14.1895C21.5463 14.1895 20.3398 12.983 20.3398 11.5C20.3398 10.017 21.5463 8.81055 23.0293 8.81055C24.5122 8.81055 25.7188 10.017 25.7188 11.5C25.7188 12.983 24.5122 14.1895 23.0293 14.1895ZM23.0293 9.97153C22.1864 9.97153 21.5008 10.6572 21.5008 11.5C21.5008 12.3428 22.1865 13.0286 23.0293 13.0286C23.8721 13.0286 24.5578 12.3428 24.5578 11.5C24.5578 10.6572 23.8721 9.97153 23.0293 9.97153Z" fill="#2392D1"/>
<path d="M23.0293 12.627C22.4093 12.627 21.9023 12.12 21.9023 11.5H18.7773C18.7773 13.8459 20.6834 15.752 23.0293 15.752V12.627ZM21.9023 11.5C21.9023 10.88 22.4093 10.373 23.0293 10.373V7.24805C20.6834 7.24805 18.7773 9.1541 18.7773 11.5H21.9023ZM23.0293 10.373C23.6493 10.373 24.1563 10.88 24.1563 11.5H27.2813C27.2813 9.1541 25.3752 7.24805 23.0293 7.24805V10.373ZM24.1563 11.5C24.1563 12.12 23.6493 12.627 23.0293 12.627V15.752C25.3752 15.752 27.2813 13.8459 27.2813 11.5H24.1563ZM23.0293 8.40903C21.3234 8.40903 19.9383 9.79434 19.9383 11.5H23.0633C23.0633 11.5029 23.0624 11.509 23.0598 11.5152C23.0576 11.5203 23.0553 11.5231 23.0538 11.5246C23.0523 11.5261 23.0495 11.5284 23.0444 11.5305C23.0383 11.5331 23.0322 11.534 23.0293 11.534V8.40903ZM19.9383 11.5C19.9383 13.2058 21.3235 14.5911 23.0293 14.5911V11.4661C23.0322 11.4661 23.0383 11.4669 23.0445 11.4696C23.0496 11.4717 23.0523 11.474 23.0538 11.4755C23.0553 11.477 23.0576 11.4798 23.0598 11.4849C23.0624 11.491 23.0633 11.4971 23.0633 11.5H19.9383ZM23.0293 14.5911C24.7351 14.5911 26.1203 13.2058 26.1203 11.5H22.9953C22.9953 11.4971 22.9962 11.491 22.9988 11.4849C23.001 11.4798 23.0033 11.477 23.0048 11.4755C23.0062 11.474 23.009 11.4717 23.0141 11.4696C23.0203 11.4669 23.0264 11.4661 23.0293 11.4661V14.5911ZM26.1203 11.5C26.1203 9.79422 24.735 8.40903 23.0293 8.40903V11.534C23.0264 11.534 23.0203 11.5331 23.0141 11.5305C23.0091 11.5284 23.0063 11.5261 23.0048 11.5246C23.0033 11.5231 23.001 11.5203 22.9988 11.5152C22.9962 11.5091 22.9953 11.5029 22.9953 11.5H26.1203Z" fill="#2392D1" mask="url(#path-2-inside-1_15_278)"/>
</svg>
