<svg width="26" height="25" viewBox="0 0 26 25" fill="none" xmlns="http://www.w3.org/2000/svg">
<path fill-rule="evenodd" clip-rule="evenodd" d="M16.5113 0.550232C16.8345 0.550232 17.1444 0.678619 17.373 0.907148C17.6015 1.13568 17.7299 1.44563 17.7299 1.76882C17.7299 2.09201 17.6015 2.40196 17.373 2.63049C17.1444 2.85902 16.8345 2.98741 16.5113 2.98741H14.0741V5.42458H21.3857C22.3552 5.42458 23.2851 5.80974 23.9707 6.49533C24.6563 7.18091 25.0414 8.11077 25.0414 9.08034V16.3919C25.0414 17.3614 24.6563 18.2913 23.9707 18.9769C23.2851 19.6625 22.3552 20.0476 21.3857 20.0476H4.32544C3.35587 20.0476 2.42601 19.6625 1.74043 18.9769C1.05484 18.2913 0.669678 17.3614 0.669678 16.3919V9.08034C0.669678 8.11077 1.05484 7.18091 1.74043 6.49533C2.42601 5.80974 3.35587 5.42458 4.32544 5.42458H11.637V2.98741H9.19979C8.8766 2.98741 8.56664 2.85902 8.33812 2.63049C8.10959 2.40196 7.9812 2.09201 7.9812 1.76882C7.9812 1.44563 8.10959 1.13568 8.33812 0.907148C8.56664 0.678619 8.8766 0.550232 9.19979 0.550232H16.5113ZM21.3857 7.86175H4.32544C4.00225 7.86175 3.6923 7.99014 3.46377 8.21867C3.23524 8.4472 3.10685 8.75715 3.10685 9.08034V10.2989H6.76261C7.0858 10.2989 7.39575 10.4273 7.62428 10.6558C7.85281 10.8844 7.9812 11.1943 7.9812 11.5175C7.9812 11.8407 7.85281 12.1507 7.62428 12.3792C7.39575 12.6077 7.0858 12.7361 6.76261 12.7361H3.10685V16.3919C3.10685 16.7151 3.23524 17.025 3.46377 17.2535C3.6923 17.4821 4.00225 17.6104 4.32544 17.6104H21.3857C21.7088 17.6104 22.0188 17.4821 22.2473 17.2535C22.4759 17.025 22.6042 16.7151 22.6042 16.3919V9.08034C22.6042 8.75715 22.4759 8.4472 22.2473 8.21867C22.0188 7.99014 21.7088 7.86175 21.3857 7.86175ZM17.7299 9.08034C18.21 9.08034 18.6854 9.1749 19.1289 9.35862C19.5724 9.54234 19.9754 9.81162 20.3149 10.1511C20.6544 10.4906 20.9237 10.8936 21.1074 11.3371C21.2911 11.7806 21.3857 12.256 21.3857 12.7361C21.3857 13.2162 21.2911 13.6916 21.1074 14.1351C20.9237 14.5786 20.6544 14.9816 20.3149 15.3211C19.9754 15.6606 19.5724 15.9299 19.1289 16.1136C18.6854 16.2973 18.21 16.3919 17.7299 16.3919C16.7603 16.3919 15.8305 16.0067 15.1449 15.3211C14.4593 14.6355 14.0741 13.7057 14.0741 12.7361C14.0741 11.7665 14.4593 10.8367 15.1449 10.1511C15.8305 9.4655 16.7603 9.08034 17.7299 9.08034ZM17.7299 11.5175C17.4067 11.5175 17.0968 11.6459 16.8682 11.8744C16.6397 12.103 16.5113 12.4129 16.5113 12.7361C16.5113 13.0593 16.6397 13.3692 16.8682 13.5978C17.0968 13.8263 17.4067 13.9547 17.7299 13.9547C18.0531 13.9547 18.363 13.8263 18.5916 13.5978C18.8201 13.3692 18.9485 13.0593 18.9485 12.7361C18.9485 12.4129 18.8201 12.103 18.5916 11.8744C18.363 11.6459 18.0531 11.5175 17.7299 11.5175Z" fill="#1953A2"/>
<circle cx="17.75" cy="12.6739" r="2.375" fill="#2392D1"/>
</svg>
