<svg width="25" height="25" viewBox="0 0 25 25" fill="none" xmlns="http://www.w3.org/2000/svg">
<path d="M1.32056 15.1541C1.32056 10.9073 1.32056 8.7833 2.64044 7.46454C3.96033 6.14578 6.08319 6.14465 10.33 6.14465H14.8348C19.0816 6.14465 21.2056 6.14465 22.5243 7.46454C23.8431 8.78443 23.8442 10.9073 23.8442 15.1541C23.8442 19.401 23.8442 21.5249 22.5243 22.8437C21.2045 24.1625 19.0816 24.1636 14.8348 24.1636H10.33C6.08319 24.1636 3.95921 24.1636 2.64044 22.8437C1.32168 21.5238 1.32056 19.401 1.32056 15.1541Z" stroke="#1953A2" stroke-width="1.5"/>
<path d="M4.6991 11.7756C4.6991 11.1782 4.9364 10.6053 5.3588 10.1829C5.7812 9.7605 6.3541 9.52319 6.95146 9.52319H18.2133C18.8107 9.52319 19.3836 9.7605 19.806 10.1829C20.2284 10.6053 20.4657 11.1782 20.4657 11.7756C20.4657 12.3729 20.2284 12.9458 19.806 13.3682C19.3836 13.7906 18.8107 14.0279 18.2133 14.0279H6.95146C6.3541 14.0279 5.7812 13.7906 5.3588 13.3682C4.9364 12.9458 4.6991 12.3729 4.6991 11.7756Z" stroke="#1953A2" stroke-width="1.5"/>
<path opacity="0.5" d="M9.20387 18.5327C9.20387 18.9807 9.02589 19.4104 8.70909 19.7272C8.39229 20.044 7.96262 20.2219 7.51459 20.2219C7.06657 20.2219 6.6369 20.044 6.32009 19.7272C6.00329 19.4104 5.82532 18.9807 5.82532 18.5327C5.82532 18.0846 6.00329 17.655 6.32009 17.3382C6.6369 17.0214 7.06657 16.8434 7.51459 16.8434C7.96262 16.8434 8.39229 17.0214 8.70909 17.3382C9.02589 17.655 9.20387 18.0846 9.20387 18.5327Z" stroke="#1953A2" stroke-width="1.5"/>
<path d="M15.3979 10.9309V12.6202M13.1455 17.1249H18.7764" stroke="#2392D1" stroke-width="1.5" stroke-linecap="round"/>
<path d="M6.38837 6.14463L15.9609 1.63989" stroke="#1953A2" stroke-width="1.5" stroke-linecap="round"/>
<circle cx="7.51459" cy="18.5327" r="2.62335" fill="#2392D1"/>
</svg>
