<svg width="25" height="20" viewBox="0 0 25 20" fill="none" xmlns="http://www.w3.org/2000/svg">
<path d="M3.17801 19.3062C2.53146 19.3062 1.97816 19.0761 1.51813 18.6161C1.0581 18.1561 0.827688 17.6024 0.826904 16.955V2.84842C0.826904 2.20187 1.05731 1.64857 1.51813 1.18854C1.97895 0.728506 2.53224 0.498098 3.17801 0.497314H21.9868C22.6334 0.497314 23.1871 0.727722 23.6479 1.18854C24.1087 1.64936 24.3387 2.20265 24.3379 2.84842V16.955C24.3379 17.6016 24.1079 18.1553 23.6479 18.6161C23.1879 19.0769 22.6342 19.3069 21.9868 19.3062H3.17801ZM3.17801 16.955H21.9868V2.84842H3.17801V16.955ZM4.35356 15.7795H16.1091V4.02397H4.35356V15.7795ZM19.6357 15.7795C19.9688 15.7795 20.2482 15.6666 20.4739 15.4409C20.6996 15.2152 20.8121 14.9362 20.8113 14.6039C20.8105 14.2717 20.6977 13.9927 20.4727 13.7669C20.2478 13.5412 19.9688 13.4284 19.6357 13.4284C19.3027 13.4284 19.0237 13.5412 18.7987 13.7669C18.5738 13.9927 18.461 14.2717 18.4602 14.6039C18.4594 14.9362 18.5723 15.2156 18.7987 15.4421C19.0252 15.6686 19.3042 15.7811 19.6357 15.7795ZM6.70467 13.4284V6.37508H13.758V13.4284H6.70467ZM19.6357 11.0773C19.9688 11.0773 20.2482 10.9644 20.4739 10.7387C20.6996 10.513 20.8121 10.234 20.8113 9.90173C20.8105 9.56944 20.6977 9.29045 20.4727 9.06474C20.2478 8.83903 19.9688 8.72618 19.6357 8.72618C19.3027 8.72618 19.0237 8.83903 18.7987 9.06474C18.5738 9.29045 18.461 9.56944 18.4602 9.90173C18.4594 10.234 18.5723 10.5134 18.7987 10.7399C19.0252 10.9664 19.3042 11.0789 19.6357 11.0773ZM19.6357 6.37508C19.9688 6.37508 20.2482 6.26222 20.4739 6.03652C20.6996 5.81081 20.8121 5.53181 20.8113 5.19952C20.8105 4.86723 20.6977 4.58824 20.4727 4.36253C20.2478 4.13682 19.9688 4.02397 19.6357 4.02397C19.3027 4.02397 19.0237 4.13682 18.7987 4.36253C18.5738 4.58824 18.461 4.86723 18.4602 5.19952C18.4594 5.53181 18.5723 5.8112 18.7987 6.03769C19.0252 6.26418 19.3042 6.37664 19.6357 6.37508Z" fill="#1953A2"/>
<path d="M19.6795 6.49234C20.3979 6.49234 20.9802 5.93004 20.9802 5.2364C20.9802 4.54277 20.3979 3.98047 19.6795 3.98047C18.961 3.98047 18.3787 4.54277 18.3787 5.2364C18.3787 5.93004 18.961 6.49234 19.6795 6.49234Z" fill="#2392D1"/>
<path d="M19.6795 11.1577C20.3979 11.1577 20.9802 10.5954 20.9802 9.90175C20.9802 9.20811 20.3979 8.64581 19.6795 8.64581C18.961 8.64581 18.3787 9.20811 18.3787 9.90175C18.3787 10.5954 18.961 11.1577 19.6795 11.1577Z" fill="#2392D1"/>
<path d="M19.6795 15.823C20.3979 15.823 20.9802 15.2607 20.9802 14.5671C20.9802 13.8735 20.3979 13.3112 19.6795 13.3112C18.961 13.3112 18.3787 13.8735 18.3787 14.5671C18.3787 15.2607 18.961 15.823 19.6795 15.823Z" fill="#2392D1"/>
</svg>
