<svg width="22" height="32" viewBox="0 0 22 32" fill="none" xmlns="http://www.w3.org/2000/svg">
<path fill-rule="evenodd" clip-rule="evenodd" d="M16.6409 4.91519L16.1939 3.57383C15.9981 2.98498 15.82 2.44891 15.397 1.88842C15.2118 1.64293 14.9668 1.40726 14.7567 1.22757C14.5468 1.04788 14.2761 0.842317 14.0049 0.697225C13.3886 0.36744 12.9552 0.29466 12.4605 0.211588L12.4329 0.206954C11.7303 0.0888713 10.89 0 9.95041 0C9.01081 0 8.17057 0.0888713 7.46793 0.206954L7.44035 0.211588C6.94573 0.29466 6.51228 0.36744 5.89589 0.697225C5.62471 0.842317 5.35402 1.04788 5.14401 1.22757C4.93401 1.40726 4.68909 1.64293 4.50381 1.88842C4.08081 2.44891 3.90267 2.98498 3.70697 3.57385L3.25993 4.91519C3.24597 4.92226 3.23204 4.92941 3.21812 4.93663C2.1277 5.50306 1.2386 6.39216 0.672165 7.48258C0.293139 8.21225 0.140344 8.99394 0.0688999 9.85429C-2.79918e-05 10.6843 -1.38067e-05 11.7052 4.08209e-07 12.9492V18.3235C-1.38067e-05 19.5675 -2.79918e-05 20.5885 0.0688999 21.4184C0.140344 22.2788 0.293139 23.0605 0.672165 23.7902C1.2386 24.8806 2.1277 25.7697 3.21812 26.336L3.25991 26.3575L3.70697 27.6988C3.90267 28.2877 4.08081 28.8238 4.50381 29.3843C4.68909 29.6298 4.93401 29.8655 5.14401 30.0451C5.35402 30.2248 5.62471 30.4304 5.89589 30.5755C6.51228 30.9053 6.94573 30.9781 7.44035 31.0611L7.46793 31.0658C8.17057 31.1839 9.01081 31.2727 9.95041 31.2727C10.89 31.2727 11.7303 31.1839 12.4329 31.0658L12.4605 31.0611C12.9552 30.9781 13.3886 30.9053 14.0049 30.5755C14.2761 30.4304 14.5468 30.2248 14.7567 30.0451C14.9668 29.8655 15.2118 29.6298 15.397 29.3843C15.82 28.8238 15.9981 28.2877 16.1939 27.6988L16.6409 26.3575L16.6827 26.336C17.7731 25.7697 18.6623 24.8806 19.2286 23.7902C19.6077 23.0605 19.7605 22.2788 19.8319 21.4184C19.9008 20.5885 19.9008 19.5676 19.9008 18.3237V14.9256C20.6859 14.9256 21.3223 14.2892 21.3223 13.5041V10.6612C21.3223 9.87608 20.6859 9.23967 19.9008 9.23967C19.8548 9.23967 19.8091 9.24186 19.7642 9.24615C19.6738 8.62054 19.5165 8.03657 19.2286 7.48258C18.6623 6.39216 17.7731 5.50306 16.6827 4.93663C16.6688 4.92941 16.6549 4.92226 16.6409 4.91519ZM11.9617 3.01061C11.3934 2.91509 10.7118 2.84298 9.95041 2.84298C9.18906 2.84298 8.50746 2.91509 7.93915 3.01061C7.47688 3.08832 7.43054 3.10044 7.23708 3.20396C7.23722 3.20389 7.23708 3.20395 7.23708 3.20396C7.2348 3.2053 7.20794 3.22074 7.15804 3.2567C7.10857 3.29234 7.05122 3.33733 6.99238 3.38768C6.93355 3.43801 6.88024 3.48768 6.83738 3.53108C6.79406 3.57494 6.7748 3.59888 6.77316 3.6009C6.77313 3.60093 6.77306 3.60101 6.77316 3.6009C6.67388 3.73244 6.62467 3.82646 6.46761 4.2854C7.11227 4.26443 7.84803 4.26445 8.68472 4.26446H11.2161C12.0528 4.26445 12.7886 4.26443 13.4332 4.2854C13.2761 3.82646 13.2271 3.73257 13.1277 3.60103C13.1279 3.60114 13.1279 3.60105 13.1277 3.60103C13.1262 3.59899 13.1067 3.57491 13.0635 3.53108C13.0205 3.48768 12.9672 3.43801 12.9084 3.38768C12.8497 3.33733 12.7923 3.29234 12.7428 3.2567C12.6927 3.22069 12.6662 3.20536 12.6639 3.20405C12.6639 3.20403 12.6637 3.20398 12.6639 3.20405C12.4704 3.10052 12.4239 3.08832 11.9617 3.01061ZM6.77306 27.6717C6.67378 27.5402 6.62469 27.4462 6.46763 26.9874C7.11213 27.0083 7.84789 27.0083 8.68444 27.0083H11.2161C12.0527 27.0083 12.7887 27.0083 13.4332 26.9874C13.2761 27.4462 13.2271 27.5402 13.1277 27.6717C13.1262 27.6738 13.1067 27.6978 13.0635 27.7416C13.0205 27.7851 12.9672 27.8347 12.9084 27.885C12.8497 27.9354 12.7923 27.9804 12.7428 28.016C12.6927 28.0521 12.6662 28.0674 12.6639 28.0687C12.4704 28.1722 12.4239 28.1844 11.9617 28.2622C11.3934 28.3577 10.7118 28.4298 9.95041 28.4298C9.18906 28.4298 8.50746 28.3577 7.93915 28.2622C7.47688 28.1844 7.43054 28.1723 7.23708 28.0687C7.2348 28.0674 7.20808 28.0521 7.15804 28.016C7.10857 27.9804 7.05122 27.9354 6.99238 27.885C6.93355 27.8347 6.88024 27.7851 6.83738 27.7416C6.79409 27.6978 6.7747 27.6738 6.77306 27.6717ZM4.52866 7.45953C4.78488 7.32643 5.14375 7.22316 5.82511 7.16657C6.52349 7.10858 7.42585 7.10744 8.74499 7.10744H11.1558C12.475 7.10744 13.3773 7.10858 14.0757 7.16657C14.757 7.22316 15.116 7.32643 15.3721 7.45953C15.9434 7.75623 16.4091 8.22194 16.7057 8.79312C16.8388 9.04935 16.9421 9.40822 16.9987 10.0896C17.0567 10.788 17.0578 11.6904 17.0578 13.0095V18.2633C17.0578 19.5824 17.0567 20.4848 16.9987 21.1832C16.9421 21.8645 16.8388 22.2234 16.7057 22.4795C16.4091 23.0508 15.9434 23.5165 15.3721 23.8132C15.116 23.9462 14.757 24.0496 14.0757 24.1062C13.3773 24.1642 12.475 24.1653 11.1558 24.1653H8.74499C7.42585 24.1653 6.52349 24.1642 5.82511 24.1062C5.14375 24.0496 4.78488 23.9462 4.52866 23.8132C3.95748 23.5165 3.49177 23.0508 3.19506 22.4795C3.06197 22.2234 2.9587 21.8645 2.90212 21.1832C2.84411 20.4848 2.84298 19.5824 2.84298 18.2633V13.0095C2.84298 11.6904 2.84411 10.788 2.90212 10.0896C2.9587 9.40822 3.06197 9.04935 3.19506 8.79312C3.49177 8.22194 3.95748 7.75623 4.52866 7.45953Z" fill="#1953A2"/>
<g clip-path="url(#clip0_15_287)">
<path fill-rule="evenodd" clip-rule="evenodd" d="M13.7874 15.0329C12.7308 13.9763 11.2977 13.3828 9.80342 13.3828C8.30915 13.3828 6.87608 13.9763 5.81944 15.0329C5.7284 15.1209 5.60643 15.1697 5.4798 15.1686C5.35317 15.1676 5.23202 15.1169 5.14244 15.0274C5.05285 14.9379 5.002 14.8168 5.00084 14.6901C4.99968 14.5635 5.04831 14.4415 5.13624 14.3504C7.71388 11.7721 11.893 11.7721 14.4706 14.3504C14.5167 14.3949 14.5535 14.4482 14.5788 14.5072C14.604 14.5661 14.6173 14.6295 14.6179 14.6936C14.6184 14.7577 14.6061 14.8213 14.5818 14.8807C14.5575 14.94 14.5216 14.9939 14.4763 15.0392C14.4309 15.0845 14.377 15.1204 14.3176 15.1446C14.2582 15.1689 14.1946 15.1811 14.1305 15.1805C14.0664 15.1799 14.003 15.1666 13.9441 15.1412C13.8852 15.1159 13.8319 15.0791 13.7874 15.0329ZM12.4216 16.3987C12.0778 16.0548 11.6696 15.7821 11.2204 15.596C10.7712 15.4099 10.2897 15.3141 9.80342 15.3141C9.31717 15.3141 8.83568 15.4099 8.38645 15.596C7.93721 15.7821 7.52903 16.0548 7.18521 16.3987C7.09366 16.484 6.97257 16.5304 6.84746 16.5282C6.72234 16.526 6.60297 16.4753 6.51448 16.3869C6.426 16.2984 6.37532 16.179 6.37311 16.0539C6.3709 15.9288 6.41734 15.8077 6.50265 15.7161C7.37813 14.8408 8.56543 14.3491 9.80342 14.3491C11.0414 14.3491 12.2287 14.8408 13.1042 15.7161C13.1895 15.8077 13.2359 15.9288 13.2337 16.0539C13.2315 16.179 13.1808 16.2984 13.0924 16.3869C13.0039 16.4753 12.8845 16.526 12.7594 16.5282C12.6343 16.5304 12.5132 16.484 12.4216 16.3987ZM11.0552 17.7651C10.7231 17.433 10.2727 17.2465 9.8031 17.2465C9.33347 17.2465 8.88307 17.433 8.55098 17.7651C8.50641 17.8112 8.4531 17.848 8.39417 17.8733C8.33524 17.8985 8.27186 17.9118 8.20773 17.9124C8.14361 17.9129 8.08002 17.9006 8.02068 17.8763C7.96134 17.852 7.90743 17.8161 7.86211 17.7708C7.81679 17.7254 7.78095 17.6715 7.7567 17.6121C7.73244 17.5527 7.72025 17.4891 7.72084 17.425C7.72143 17.3609 7.73478 17.2975 7.76012 17.2386C7.78546 17.1797 7.82227 17.1264 7.86842 17.0819C8.38164 16.5687 9.07767 16.2805 9.80342 16.2805C10.5292 16.2805 11.2252 16.5687 11.7384 17.0819C11.8237 17.1734 11.8702 17.2945 11.868 17.4196C11.8658 17.5448 11.8151 17.6641 11.7266 17.7526C11.6381 17.8411 11.5187 17.8918 11.3936 17.894C11.2685 17.8962 11.1474 17.8498 11.0559 17.7645M9.23483 18.447C9.30958 18.3723 9.39832 18.3129 9.49599 18.2725C9.59366 18.232 9.69834 18.2112 9.80406 18.2112C9.90978 18.2112 10.0145 18.232 10.1121 18.2725C10.2098 18.3129 10.2985 18.3723 10.3733 18.447C10.4637 18.5376 10.5145 18.6603 10.5145 18.7883C10.5145 18.9163 10.4637 19.039 10.3733 19.1296L10.1447 19.3582C10.0541 19.4486 9.9314 19.4994 9.80342 19.4994C9.67544 19.4994 9.55269 19.4486 9.46214 19.3582L9.23419 19.1302C9.14375 19.0397 9.09295 18.9169 9.09295 18.7889C9.09295 18.661 9.14375 18.5382 9.23419 18.4477" fill="#2392D1"/>
</g>
<defs>
<clipPath id="clip0_15_287">
<rect width="10.3028" height="10.3028" fill="white" transform="translate(4.65137 10.4849)"/>
</clipPath>
</defs>
</svg>
