<svg width="19" height="25" viewBox="0 0 19 25" fill="none" xmlns="http://www.w3.org/2000/svg">
<path fill-rule="evenodd" clip-rule="evenodd" d="M15.1285 0.0476074C16.0389 0.0476074 16.912 0.409244 17.5557 1.05296C18.1994 1.69668 18.561 2.56975 18.561 3.4801V19.4984C18.561 20.4088 18.1994 21.2818 17.5557 21.9256C16.912 22.5693 16.0389 22.9309 15.1285 22.9309H3.68689C2.77654 22.9309 1.90347 22.5693 1.25975 21.9256C0.616031 21.2818 0.254395 20.4088 0.254395 19.4984V3.4801C0.254395 2.56975 0.616031 1.69668 1.25975 1.05296C1.90347 0.409244 2.77654 0.0476074 3.68689 0.0476074H15.1285ZM15.1285 2.33594H3.68689C3.38344 2.33594 3.09242 2.45648 2.87784 2.67106C2.66327 2.88563 2.54272 3.17665 2.54272 3.4801V19.4984C2.54272 19.8019 2.66327 20.0929 2.87784 20.3075C3.09242 20.522 3.38344 20.6426 3.68689 20.6426H15.1285C15.432 20.6426 15.723 20.522 15.9376 20.3075C16.1522 20.0929 16.2727 19.8019 16.2727 19.4984V3.4801C16.2727 3.17665 16.1522 2.88563 15.9376 2.67106C15.723 2.45648 15.432 2.33594 15.1285 2.33594ZM9.40771 9.20093C10.6215 9.20093 11.7856 9.68311 12.6439 10.5414C13.5022 11.3997 13.9844 12.5638 13.9844 13.7776C13.9844 14.9914 13.5022 16.1555 12.6439 17.0138C11.7856 17.8721 10.6215 18.3542 9.40771 18.3542C8.19391 18.3542 7.02982 17.8721 6.17153 17.0138C5.31324 16.1555 4.83105 14.9914 4.83105 13.7776C4.83105 12.5638 5.31324 11.3997 6.17153 10.5414C7.02982 9.68311 8.19391 9.20093 9.40771 9.20093ZM9.40771 11.4893C8.80081 11.4893 8.21877 11.7303 7.78962 12.1595C7.36048 12.5886 7.11938 13.1707 7.11938 13.7776C7.11938 14.3845 7.36048 14.9665 7.78962 15.3957C8.21877 15.8248 8.80081 16.0659 9.40771 16.0659C10.0146 16.0659 10.5967 15.8248 11.0258 15.3957C11.455 14.9665 11.696 14.3845 11.696 13.7776C11.696 13.1707 11.455 12.5886 11.0258 12.1595C10.5967 11.7303 10.0146 11.4893 9.40771 11.4893ZM9.40771 4.62427C9.86289 4.62427 10.2994 4.80509 10.6213 5.12694C10.9431 5.4488 11.124 5.88534 11.124 6.34052C11.124 6.79569 10.9431 7.23223 10.6213 7.55409C10.2994 7.87594 9.86289 8.05676 9.40771 8.05676C8.95254 8.05676 8.516 7.87594 8.19414 7.55409C7.87229 7.23223 7.69147 6.79569 7.69147 6.34052C7.69147 5.88534 7.87229 5.4488 8.19414 5.12694C8.516 4.80509 8.95254 4.62427 9.40771 4.62427Z" fill="#1953A2"/>
<circle cx="9.40768" cy="6.40012" r="1.71262" fill="#2392D1"/>
</svg>
