<svg width="20" height="25" viewBox="0 0 20 25" fill="none" xmlns="http://www.w3.org/2000/svg">
<path d="M2.78647 7.16621C2.95174 7.16621 3.11942 7.10516 3.24816 6.98102L4.87849 5.40892C5.13981 5.15693 5.13981 4.74525 4.87849 4.49326C4.62228 4.2462 4.21131 4.2462 3.9551 4.49326L2.32477 6.06536C2.06345 6.31735 2.06345 6.72903 2.32477 6.98102C2.45351 7.10516 2.62119 7.16621 2.78647 7.16621Z" fill="#2392D1" stroke="#2392D1" stroke-width="0.5"/>
<path d="M2.99011 9.3278C3.15538 9.3278 3.32307 9.26674 3.4518 9.1426L4.26697 8.35655C4.52829 8.10457 4.52829 7.69288 4.26697 7.44089C4.01076 7.19384 3.59979 7.19384 3.34358 7.44089L2.52842 8.22694C2.2671 8.47893 2.2671 8.89062 2.52842 9.1426C2.65716 9.26674 2.82484 9.3278 2.99011 9.3278Z" fill="#2392D1" stroke="#2392D1" stroke-width="0.5"/>
<path d="M4.15997 6.65137L4.15983 6.65122L4.15276 6.65842C4.03753 6.7757 3.96289 6.93936 3.96289 7.11268C3.96289 7.28599 4.03753 7.44965 4.15276 7.56693L4.1525 7.56718L4.16247 7.5763C4.28376 7.68709 4.44914 7.7557 4.62047 7.7557C4.7918 7.7557 4.95719 7.68709 5.07847 7.5763L5.07872 7.57657L5.08819 7.56693C5.20341 7.44965 5.27805 7.28599 5.27805 7.11268C5.27805 6.93936 5.20341 6.7757 5.08819 6.65842L5.08825 6.65836L5.08339 6.65367C4.83447 6.41364 4.40975 6.41685 4.15997 6.65137Z" fill="#2392D1" stroke="#2392D1" stroke-width="0.5"/>
<path d="M4.97394 6.78444C5.10268 6.90858 5.27036 6.96963 5.43564 6.96963C5.60091 6.96963 5.76859 6.90858 5.89733 6.78444L7.12007 5.60536C7.38139 5.35338 7.38139 4.94169 7.12007 4.6897C6.86387 4.44265 6.4529 4.44265 6.19669 4.6897L4.97394 5.86878C4.71262 6.12076 4.71262 6.53245 4.97394 6.78444Z" fill="#2392D1" stroke="#2392D1" stroke-width="0.5"/>
<path d="M6.19674 6.8514L2.52851 10.3886C2.26719 10.6406 2.26719 11.0523 2.52851 11.3043C2.65725 11.4284 2.82493 11.4895 2.9902 11.4895C3.15548 11.4895 3.32316 11.4284 3.4519 11.3043L7.12013 7.76706C7.38145 7.51507 7.38145 7.10339 7.12013 6.8514C6.86392 6.60434 6.45295 6.60434 6.19674 6.8514Z" fill="#2392D1" stroke="#2392D1" stroke-width="0.5"/>
<path d="M7.01077 6.06417L7.0107 6.06411L7.00597 6.06893C6.89074 6.18621 6.8161 6.34987 6.8161 6.52318C6.8161 6.6965 6.89074 6.86016 7.00597 6.97744L7.00571 6.97769L7.01568 6.98681C7.13697 7.0976 7.30236 7.16621 7.47368 7.16621C7.64501 7.16621 7.8104 7.0976 7.93168 6.98681L7.93193 6.98708L7.9414 6.97744C8.05662 6.86016 8.13126 6.6965 8.13126 6.52318C8.13126 6.34987 8.05662 6.18621 7.9414 6.06893L7.94154 6.06879L7.93419 6.06188C7.68441 5.82736 7.25969 5.82415 7.01077 6.06417Z" fill="#2392D1" stroke="#2392D1" stroke-width="0.5"/>
<path d="M8.23464 4.88628L7.82706 5.27931C7.56574 5.53129 7.56574 5.94298 7.82706 6.19497C7.9558 6.31911 8.12348 6.38016 8.28876 6.38016C8.45403 6.38016 8.62171 6.31911 8.75045 6.19497L9.15803 5.80194C9.41935 5.54995 9.41935 5.13827 9.15803 4.88628C8.90182 4.63922 8.49085 4.63922 8.23464 4.88628Z" fill="#2392D1" stroke="#2392D1" stroke-width="0.5"/>
<path d="M10.1856 1.55688H9.95051C9.76286 1.55688 9.6361 1.68275 9.56972 1.79369C9.50027 1.90977 9.46536 2.05399 9.46536 2.19991C9.46536 2.34583 9.50027 2.49004 9.56972 2.60613C9.6361 2.71707 9.76286 2.84293 9.95051 2.84293H10.1856C10.3733 2.84293 10.5001 2.71707 10.5664 2.60613C10.6359 2.49004 10.6708 2.34583 10.6708 2.19991C10.6708 2.05399 10.6359 1.90977 10.5664 1.79369C10.5001 1.68275 10.3733 1.55688 10.1856 1.55688Z" fill="#8BC4E5" stroke="#2392D1" stroke-width="0.5"/>
<path d="M17.0934 0.377808H2.33729C1.32815 0.377808 0.498535 1.18336 0.498535 2.18458V2.98596V21.0651V22.6525C0.498535 23.6537 1.32815 24.4593 2.33729 24.4593H17.0929C18.1024 24.4593 18.9321 23.6538 18.9321 22.6525V21.0651V2.98596V2.18458C18.9321 1.18336 18.1025 0.377808 17.0934 0.377808ZM10.1229 22.7802C9.80276 22.7802 9.55774 22.5311 9.55774 22.2442C9.55774 21.9572 9.80276 21.7081 10.1229 21.7081C10.443 21.7081 10.6881 21.9572 10.6881 22.2442C10.6881 22.5311 10.443 22.7802 10.1229 22.7802ZM1.8137 4.02201H17.6169V20.029H1.8137V4.02201ZM1.8137 22.6525V21.3151H8.51081C8.34196 21.5853 8.24258 21.902 8.24258 22.2442C8.24258 22.5863 8.34196 22.9031 8.51081 23.1732H2.33729C2.04813 23.1732 1.8137 22.9384 1.8137 22.6525ZM17.6169 22.6525C17.6169 22.9384 17.3825 23.1732 17.0934 23.1732H11.735C11.9038 22.9031 12.0032 22.5863 12.0032 22.2442C12.0032 21.902 11.9038 21.5853 11.735 21.3151H17.6169V22.6525ZM1.8137 2.73596V2.18458C1.8137 1.89869 2.04813 1.66386 2.33729 1.66386H17.0929C17.3826 1.66386 17.6169 1.89877 17.6169 2.18458V2.73596H1.8137Z" fill="#1953A2" stroke="#1953A2" stroke-width="0.5"/>
</svg>
