<svg width="31" height="31" viewBox="0 0 31 31" fill="none" xmlns="http://www.w3.org/2000/svg">
<path fill-rule="evenodd" clip-rule="evenodd" d="M28.3403 26.6685C28.3403 27.7035 27.5003 28.5435 26.4653 28.5435H3.96533C2.93033 28.5435 2.09033 27.7035 2.09033 26.6685V11.6685C2.09033 10.6335 2.93033 9.79349 3.96533 9.79349H26.4653C27.5003 9.79349 28.3403 10.6335 28.3403 11.6685V26.6685ZM26.4653 7.91849H17.7897L26.0135 2.2607C26.4475 1.96164 26.5713 1.34471 26.29 0.883459C26.0097 0.422209 25.4294 0.290055 24.9944 0.589117C24.9944 0.589117 15.985 6.80943 15.2238 7.2688L5.43627 0.589117C5.00221 0.290055 4.42097 0.422209 4.14066 0.883459C3.85941 1.34471 3.98314 1.96164 4.4172 2.2607L12.641 7.91849H3.96533C1.89439 7.91849 0.215332 9.59755 0.215332 11.6685V26.6685C0.215332 28.7394 1.89439 30.4185 3.96533 30.4185H26.4653C28.5363 30.4185 30.2153 28.7394 30.2153 26.6685V11.6685C30.2153 9.59755 28.5363 7.91849 26.4653 7.91849ZM25.5278 21.981H21.7778C21.2594 21.981 20.8403 22.4 20.8403 22.9185C20.8403 23.4369 21.2594 23.856 21.7778 23.856H25.5278C26.0463 23.856 26.4653 23.4369 26.4653 22.9185C26.4653 22.4 26.0463 21.981 25.5278 21.981ZM17.0903 23.856C17.0903 24.3744 16.6713 24.7935 16.1528 24.7935H6.77783C6.25939 24.7935 5.84033 24.3744 5.84033 23.856V14.481C5.84033 13.9635 6.25939 13.5435 6.77783 13.5435H16.1528C16.6713 13.5435 17.0903 13.9635 17.0903 14.481V23.856ZM17.0903 11.6685H5.84033C4.80533 11.6685 3.96533 12.5085 3.96533 13.5435V24.7935C3.96533 25.8285 4.80533 26.6685 5.84033 26.6685H17.0903C18.1253 26.6685 18.9653 25.8285 18.9653 24.7935V13.5435C18.9653 12.5085 18.1253 11.6685 17.0903 11.6685ZM25.5278 24.7935H21.7778C21.2594 24.7935 20.8403 25.2125 20.8403 25.731C20.8403 26.2494 21.2594 26.6685 21.7778 26.6685H25.5278C26.0463 26.6685 26.4653 26.2494 26.4653 25.731C26.4653 25.2125 26.0463 24.7935 25.5278 24.7935ZM22.7153 13.5435H24.5903V15.4185H22.7153V13.5435ZM23.6528 11.6685C22.0994 11.6685 20.8403 12.9275 20.8403 14.481C20.8403 16.0344 22.0994 17.2935 23.6528 17.2935C25.2063 17.2935 26.4653 16.0344 26.4653 14.481C26.4653 12.9275 25.2063 11.6685 23.6528 11.6685Z" fill="#1953A2"/>
<path d="M21.5854 22.9426L25.696 22.9666" stroke="#2392D1" stroke-width="2.5" stroke-linecap="round"/>
<path d="M21.5854 25.6829L25.696 25.707" stroke="#2392D1" stroke-width="2.5" stroke-linecap="round"/>
<rect x="22.4268" y="13.2551" width="2.45192" height="2.5" fill="#2392D1"/>
</svg>
