<svg width="23" height="27" viewBox="0 0 23 27" fill="none" xmlns="http://www.w3.org/2000/svg">
<path d="M19.6738 1.88666H2.75716C2.08982 1.88666 1.54883 2.40899 1.54883 3.05332V24.0533C1.54883 24.6977 2.08982 25.22 2.75716 25.22H19.6738C20.3412 25.22 20.8822 24.6977 20.8822 24.0533V3.05332C20.8822 2.40899 20.3412 1.88666 19.6738 1.88666Z" stroke="#1953A2" stroke-width="3"/>
<path d="M1.54883 8.59503H20.8822" stroke="#1953A2" stroke-width="3" stroke-linecap="round" stroke-linejoin="round"/>
<path d="M13.6322 6.55336C14.2995 6.55336 14.8405 6.03103 14.8405 5.3867C14.8405 4.74237 14.2995 4.22003 13.6322 4.22003C12.9648 4.22003 12.4238 4.74237 12.4238 5.3867C12.4238 6.03103 12.9648 6.55336 13.6322 6.55336Z" fill="#2392D1"/>
<path d="M17.2572 6.55336C17.9245 6.55336 18.4655 6.03103 18.4655 5.3867C18.4655 4.74237 17.9245 4.22003 17.2572 4.22003C16.5898 4.22003 16.0488 4.74237 16.0488 5.3867C16.0488 6.03103 16.5898 6.55336 17.2572 6.55336Z" fill="#2392D1"/>
<path d="M11.2155 21.1367C13.5512 21.1367 15.4447 19.3085 15.4447 17.0534C15.4447 14.7982 13.5512 12.97 11.2155 12.97C8.87979 12.97 6.98633 14.7982 6.98633 17.0534C6.98633 19.3085 8.87979 21.1367 11.2155 21.1367Z" stroke="#2392D1" stroke-width="3"/>
</svg>
