<svg width="22" height="31" viewBox="0 0 22 31" fill="none" xmlns="http://www.w3.org/2000/svg">
<path d="M10.9932 24.1685C15.8257 24.1685 19.7432 20.251 19.7432 15.4185C19.7432 10.586 15.8257 6.66852 10.9932 6.66852C6.16067 6.66852 2.24316 10.586 2.24316 15.4185C2.24316 20.251 6.16067 24.1685 10.9932 24.1685Z" stroke="#1953A2" stroke-width="3" stroke-linecap="round" stroke-linejoin="round"/>
<path d="M10.9932 11.6685V15.4185L12.8682 17.2935" stroke="#2392D1" stroke-width="3" stroke-linecap="round" stroke-linejoin="round"/>
<path d="M16.6308 22.106L16.1933 26.8935C16.1369 27.5168 15.8489 28.0964 15.386 28.5176C14.9231 28.9388 14.3191 29.1711 13.6933 29.1685H8.28076C7.65492 29.1711 7.05089 28.9388 6.58802 28.5176C6.12514 28.0964 5.83708 27.5168 5.78076 26.8935L5.34326 22.106M5.35576 8.73104L5.79326 3.94354C5.84939 3.32239 6.13567 2.74464 6.59591 2.32373C7.05614 1.90281 7.65708 1.66913 8.28076 1.66854H13.7183C14.3441 1.666 14.9481 1.89829 15.411 2.3195C15.8739 2.74072 16.1619 3.32023 16.2183 3.94354L16.6558 8.73104" stroke="#1953A2" stroke-width="3" stroke-linecap="round" stroke-linejoin="round"/>
</svg>
